<svg version="1.1" xmlns="http://www.w3.org/2000/svg" viewBox="0 0 1920 1120" width="1920" height="1120">
  <!-- svg-source:excalidraw -->
  
  <defs>
    <style class="style-fonts">
      @font-face {
        font-family: "Virgil";
        src: url("https://excalidraw.com/Virgil.woff2");
      }
      @font-face {
        font-family: "Cascadia";
        src: url("https://excalidraw.com/Cascadia.woff2");
      }
      @font-face {
        font-family: "Assistant";
        src: url("https://excalidraw.com/Assistant-Regular.woff2");
      }
    </style>
    
  </defs>
  <rect x="0" y="0" width="1920" height="1120" fill="#ffffff"></rect><g stroke-linecap="round" transform="translate(850 410) rotate(0 100 50)"><path d="M0 0 C50.09 2.26, 100.85 -0.07, 200 0 M200 0 C202.18 25.81, 201.19 49.55, 200 100 M200 100 C138.74 100.69, 81.19 101.88, 0 100 M0 100 C0.17 62.73, 1.19 24.64, 0 0" stroke="#1e1e1e" stroke-width="2.5" fill="none" stroke-dasharray="8 10"></path></g><g transform="translate(905.1666679382324 435) rotate(0 44.83333206176758 25)"><text x="44.83333206176758" y="0" font-family="Virgil, Segoe UI Emoji" font-size="20px" fill="#1e1e1e" text-anchor="middle" style="white-space: pre;" direction="ltr" dominant-baseline="text-before-edge">TypeORM</text><text x="44.83333206176758" y="25" font-family="Virgil, Segoe UI Emoji" font-size="20px" fill="#1e1e1e" text-anchor="middle" style="white-space: pre;" direction="ltr" dominant-baseline="text-before-edge">API</text></g><g stroke-linecap="round" transform="translate(1210 810) rotate(0 100 50)"><path d="M0 0 C78.08 -1.73, 156.26 -0.77, 200 0 M0 0 C61.78 2.42, 122.96 2.17, 200 0 M200 0 C200.91 26.75, 198.92 53.03, 200 100 M200 0 C200.2 35.11, 199.92 70.79, 200 100 M200 100 C140.25 97.99, 79.78 98.33, 0 100 M200 100 C132.91 100.89, 65.98 99.57, 0 100 M0 100 C-0.34 76.95, 1.09 51.33, 0 0 M0 100 C0.88 76.36, 1.57 54.73, 0 0" stroke="#1e1e1e" stroke-width="2" fill="none"></path></g><g transform="translate(1269.191665649414 835) rotate(0 40.80833435058594 25)"><text x="40.80833435058594" y="0" font-family="Virgil, Segoe UI Emoji" font-size="20px" fill="#1e1e1e" text-anchor="middle" style="white-space: pre;" direction="ltr" dominant-baseline="text-before-edge">liquibase</text><text x="40.80833435058594" y="25" font-family="Virgil, Segoe UI Emoji" font-size="20px" fill="#1e1e1e" text-anchor="middle" style="white-space: pre;" direction="ltr" dominant-baseline="text-before-edge">scripts</text></g><g stroke-linecap="round"><g transform="translate(751 470) rotate(0 49 0)"><path d="M0 0 C24.04 -0.92, 45.62 1.87, 98 0" stroke="#343a40" stroke-width="1.5" fill="none" stroke-dasharray="8 9"></path></g><g transform="translate(751 470) rotate(0 49 0)"><path d="M69.98 10.72 C78.19 6.77, 84 7.14, 98 0" stroke="#343a40" stroke-width="1.5" fill="none"></path></g><g transform="translate(751 470) rotate(0 49 0)"><path d="M69.64 -9.8 C78.05 -9.12, 83.95 -4.13, 98 0" stroke="#343a40" stroke-width="1.5" fill="none"></path></g></g><mask></mask><g stroke-linecap="round"><g transform="translate(550 470) rotate(0 -69.5 1.0238447657376923)"><path d="M0 0 C-37.78 -2.4, -77.89 0.85, -139 2.05" stroke="#343a40" stroke-width="1.5" fill="none" stroke-dasharray="8 9"></path></g><g transform="translate(550 470) rotate(0 -69.5 1.0238447657376923)"><path d="M-111.11 -9.01 C-117.81 -7.86, -126.8 -2.09, -139 2.05" stroke="#343a40" stroke-width="1.5" fill="none"></path></g><g transform="translate(550 470) rotate(0 -69.5 1.0238447657376923)"><path d="M-110.53 11.5 C-117.31 6.9, -126.46 6.93, -139 2.05" stroke="#343a40" stroke-width="1.5" fill="none"></path></g></g><mask></mask><g stroke-linecap="round"><g transform="translate(1208.9994150936188 869.5743147392025) rotate(0 -419.49970754680936 -149.7518834359464)"><path d="M0 20.07 C-215.53 21.55, -430.62 18.37, -839 10.92 M-839 10.92 C-837.25 -86.73, -838.82 -185.66, -839 -319.57" stroke="#343a40" stroke-width="1.5" fill="none" stroke-dasharray="8 9"></path></g><g transform="translate(1208.9994150936188 869.5743147392025) rotate(0 -419.49970754680936 -149.7518834359464)"><path d="M-828.64 -291.42 C-831.08 -296.72, -832.39 -306.03, -839 -319.57" stroke="#343a40" stroke-width="1.5" fill="none"></path></g><g transform="translate(1208.9994150936188 869.5743147392025) rotate(0 -419.49970754680936 -149.7518834359464)"><path d="M-849.16 -291.35 C-846.33 -296.85, -842.37 -306.18, -839 -319.57" stroke="#343a40" stroke-width="1.5" fill="none"></path></g></g><mask></mask><g stroke-linecap="round" transform="translate(550 410) rotate(0 100 50)"><path d="M0 0 C79.06 0.99, 156.25 0.19, 200 0 M0 0 C65.85 -1.85, 130.48 -0.56, 200 0 M200 0 C199.03 38.64, 201.05 76.05, 200 100 M200 0 C200.73 32.57, 200.27 64.51, 200 100 M200 100 C157.5 99.36, 119.52 99.66, 0 100 M200 100 C131.3 100.88, 62.28 100.88, 0 100 M0 100 C-2.35 69.09, -0.91 36.79, 0 0 M0 100 C-0.1 67.66, 0.57 34.72, 0 0" stroke="#1e1e1e" stroke-width="2" fill="none"></path></g><g transform="translate(563.1750030517578 447.5) rotate(0 86.82499694824219 12.5)"><text x="86.82499694824219" y="0" font-family="Virgil, Segoe UI Emoji" font-size="20px" fill="#1e1e1e" text-anchor="middle" style="white-space: pre;" direction="ltr" dominant-baseline="text-before-edge">DataAccessLayer</text></g><g transform="translate(670 510) rotate(0 39.375 12.5)"><text x="78.75" y="0" font-family="Virgil, Segoe UI Emoji" font-size="20px" fill="#1e1e1e" text-anchor="end" style="white-space: pre;" direction="ltr" dominant-baseline="text-before-edge">adapter</text></g><g stroke-linecap="round" transform="translate(210 410) rotate(0 100 50)"><path d="M0 0 C55.06 1.43, 107.14 -1.78, 200 0 M0 0 C42.26 -0.81, 84.26 -0.84, 200 0 M200 0 C201.53 25.95, 202.07 52.89, 200 100 M200 0 C200.56 28.82, 199.48 56.99, 200 100 M200 100 C157.5 101.91, 113.63 101.56, 0 100 M200 100 C146.42 100.16, 94.06 98.81, 0 100 M0 100 C2.13 71.99, 1.67 44.3, 0 0 M0 100 C-1.06 72.74, -0.13 44.6, 0 0" stroke="#1e1e1e" stroke-width="2" fill="none"></path></g><g transform="translate(255.45833206176758 447.5) rotate(0 54.54166793823242 12.5)"><text x="54.54166793823242" y="0" font-family="Virgil, Segoe UI Emoji" font-size="20px" fill="#1e1e1e" text-anchor="middle" style="white-space: pre;" direction="ltr" dominant-baseline="text-before-edge">Participant</text></g><g transform="translate(352.1166648864746 510) rotate(0 28.316667556762695 12.5)"><text x="56.63333511352539" y="0" font-family="Virgil, Segoe UI Emoji" font-size="20px" fill="#1e1e1e" text-anchor="end" style="white-space: pre;" direction="ltr" dominant-baseline="text-before-edge">entity</text></g><g stroke-linecap="round"><g transform="translate(1510 110) rotate(0 0 450)"><path d="M0 0 C-0.27 219.35, 0.12 437.62, 0 900" stroke="#1971c2" stroke-width="2.5" fill="none" stroke-dasharray="8 10"></path></g></g><mask></mask><g stroke-linecap="round"><g transform="translate(1110 210) rotate(0 0 400)"><path d="M0 0 C2.82 315.28, 3.36 631.59, 0 800" stroke="#1971c2" stroke-width="2.5" fill="none" stroke-dasharray="8 10"></path></g></g><mask></mask><g stroke-linecap="round"><g transform="translate(510 110) rotate(0 0 450)"><path d="M0 0 C2.21 255.52, 2.04 510.73, 0 900" stroke="#1971c2" stroke-width="2.5" fill="none" stroke-dasharray="8 10"></path></g></g><mask></mask><g stroke-linecap="round" transform="translate(1610.1715855578718 510) rotate(0 50 20)"><path d="M6.93 11.32 C6.93 11.32, 6.93 11.32, 6.93 11.32 M6.93 11.32 C6.93 11.32, 6.93 11.32, 6.93 11.32 M5.09 25.63 C12.83 18.93, 18.99 8.42, 22.81 5.25 M5.09 25.63 C10.79 18.22, 17.11 12.81, 22.81 5.25 M10.47 31.63 C19.46 21.41, 26.19 14.18, 32.12 6.72 M10.47 31.63 C15.72 24.08, 22.17 18.41, 32.12 6.72 M16.51 36.88 C25.22 26.58, 33.63 16.4, 44.07 5.18 M16.51 36.88 C27.48 24.57, 37.63 14.09, 44.07 5.18 M25.83 38.35 C33.29 28.59, 38.93 21.22, 58.63 0.62 M25.83 38.35 C33.09 28, 42.79 20.2, 58.63 0.62 M35.15 39.83 C47.2 25.81, 57.41 12.37, 67.29 2.85 M35.15 39.83 C42.09 30.74, 48.29 23.77, 67.29 2.85 M44.47 41.3 C53.58 33.84, 59.07 26.31, 75.96 5.08 M44.47 41.3 C51.99 31.6, 58.8 23.41, 75.96 5.08 M55.75 40.51 C64.96 28.76, 70.87 20.96, 85.27 6.55 M55.75 40.51 C67.96 26.15, 79.83 12.73, 85.27 6.55 M67.04 39.72 C73.46 32.6, 78.2 24.62, 91.31 11.8 M67.04 39.72 C76.8 27.72, 86.7 16.99, 91.31 11.8 M76.36 41.2 C81.74 34.75, 86.29 29.73, 98.01 16.29 M76.36 41.2 C82.71 34.88, 86.94 27.61, 98.01 16.29" stroke="#a5d8ff" stroke-width="1" fill="none"></path><path d="M28.22 3.02 C36 1.04, 47.82 -0.67, 57.42 -0.1 C67.03 0.46, 78.7 3.55, 85.87 6.41 C93.04 9.27, 98.97 13.29, 100.42 17.04 C101.87 20.79, 99.27 25.47, 94.58 28.9 C89.89 32.32, 80.89 35.86, 72.26 37.58 C63.64 39.3, 52.6 39.82, 42.81 39.22 C33.02 38.62, 20.49 36.75, 13.51 33.97 C6.53 31.2, 2.08 26.28, 0.93 22.56 C-0.23 18.85, 1.58 15.13, 6.6 11.7 C11.62 8.26, 25.9 3.75, 31.03 1.93 C36.16 0.12, 37.04 0.61, 37.39 0.82 M36.68 1.13 C45.21 -0.23, 56.88 -0.2, 66.1 1.14 C75.31 2.47, 86.24 5.93, 91.95 9.13 C97.67 12.33, 100.73 16.2, 100.37 20.33 C100.02 24.46, 95.94 30.74, 89.83 33.9 C83.71 37.06, 73.32 38.52, 63.71 39.29 C54.1 40.07, 41.34 39.78, 32.17 38.56 C23 37.34, 14.06 34.96, 8.7 31.97 C3.35 28.98, -0.51 24.63, 0.03 20.6 C0.56 16.58, 5.86 11.22, 11.93 7.79 C18 4.37, 32.07 1.04, 36.44 0.06 C40.81 -0.93, 38.12 1.43, 38.15 1.87" stroke="#1e1e1e" stroke-width="2" fill="none"></path></g><g stroke-linecap="round" transform="translate(1610.1715855578718 610) rotate(0 50 20)"><path d="M62.2 0 C71.53 0.5, 81.81 2.99, 87.96 6.24 C94.11 9.48, 98.22 15.41, 99.12 19.47 C100.02 23.53, 98.49 27.59, 93.37 30.6 C88.24 33.62, 77.45 36.2, 68.37 37.55 C59.29 38.9, 48.35 39.31, 38.9 38.69 C29.45 38.07, 17.98 36.6, 11.68 33.81 C5.38 31.03, 1.77 25.89, 1.09 21.98 C0.42 18.06, 2.75 13.63, 7.65 10.33 C12.55 7.02, 19.46 3.44, 30.5 2.15 C41.55 0.86, 65.45 2.13, 73.93 2.6 C82.42 3.06, 82 4.74, 81.39 4.95 M51.99 -1.1 C61.13 -0.98, 74.07 3.4, 82 6.13 C89.94 8.86, 97.03 11.92, 99.61 15.27 C102.19 18.61, 101.09 22.79, 97.46 26.21 C93.83 29.63, 86.42 33.5, 77.83 35.78 C69.24 38.07, 55.79 39.98, 45.92 39.93 C36.05 39.87, 25.97 38.13, 18.59 35.45 C11.21 32.77, 4.2 27.42, 1.63 23.84 C-0.93 20.26, -0.21 17.45, 3.18 13.96 C6.57 10.47, 13.63 5.47, 21.97 2.91 C30.32 0.35, 47.99 -0.84, 53.26 -1.41 C58.54 -1.98, 53.8 -1.19, 53.63 -0.53" stroke="#1e1e1e" stroke-width="2" fill="none"></path></g><g stroke-linecap="round" transform="translate(1610.1715855578718 590) rotate(0 50 20)"><path d="M-0.99 -0.31 L99.26 -1.83 L98.48 39.11 L0.46 39.37" stroke="none" stroke-width="0" fill="#ffffff"></path><path d="M0 0 C21.19 -0.79, 44.46 -0.88, 100 0 M0 0 C26.85 -0.53, 53.6 -0.39, 100 0 M100 0 C99.31 14.47, 99.42 27.55, 100 40 M100 0 C100.45 12.48, 100.59 26.06, 100 40 M100 40 C65.93 40.86, 28.4 42.41, 0 40 M100 40 C76.89 40.13, 54.66 39.63, 0 40 M0 40 C1.22 25.08, 1.86 9.24, 0 0 M0 40 C-0.64 28.41, -0.27 18.26, 0 0" stroke="transparent" stroke-width="2" fill="none"></path></g><g stroke-linecap="round"><g transform="translate(1610.1715855578718 530) rotate(0 0 50)"><path d="M0 0 C0.21 30.66, 1.72 57.75, 0 100 M0 0 C0.05 28.42, -0.41 59.23, 0 100" stroke="#1e1e1e" stroke-width="2" fill="none"></path></g></g><mask></mask><g stroke-linecap="round"><g transform="translate(1710.855478101474 530) rotate(0 0 50)"><path d="M0 0 C-0.07 25.47, -1.51 51.97, 0 100 M0 0 C1.5 33.21, 0.59 65.33, 0 100" stroke="#1e1e1e" stroke-width="2" fill="none"></path></g></g><mask></mask><g stroke-linecap="round"><g transform="translate(1705.335153283304 538) rotate(0 0 50)"><path d="M0 0 C-0.45 25.97, 0.53 51.47, 0 100 M0 0 C-0.6 25.91, 0.7 51.37, 0 100" stroke="#1e1e1e" stroke-width="2" fill="none"></path></g></g><mask></mask><g stroke-linecap="round"><g transform="translate(1699.335153283304 542) rotate(0 0 50)"><path d="M0 0 C-0.93 27.86, -1.68 57.7, 0 100 M0 0 C-0.97 31.12, -0.03 60.76, 0 100" stroke="#1e1e1e" stroke-width="2" fill="none"></path></g></g><mask></mask><g stroke-linecap="round"><g transform="translate(1616.1715855578718 540) rotate(0 0 50)"><path d="M0 0 C0.27 23.79, 0.19 51.15, 0 100 M0 0 C0.6 29.54, 0.33 58.58, 0 100" stroke="#1e1e1e" stroke-width="2" fill="none"></path></g></g><mask></mask><g transform="translate(1649.2401028547501 582.0743675368196) rotate(0 10.774999618530273 12.5)"><text x="10.774999618530273" y="0" font-family="Virgil, Segoe UI Emoji" font-size="20px" fill="#1e1e1e" text-anchor="middle" style="white-space: pre;" direction="ltr" dominant-baseline="text-before-edge">db</text></g><g stroke-linecap="round"><g transform="translate(1410 470) rotate(0 100 40)"><path d="M0 0 C57.92 24.46, 120.68 47.01, 200 80" stroke="#343a40" stroke-width="1.5" fill="none" stroke-dasharray="8 9"></path></g><g transform="translate(1410 470) rotate(0 100 40)"><path d="M170.02 78.94 C176.98 80.22, 189.51 79.04, 200 80" stroke="#343a40" stroke-width="1.5" fill="none"></path></g><g transform="translate(1410 470) rotate(0 100 40)"><path d="M177.72 59.91 C182.39 66.88, 192.62 71.37, 200 80" stroke="#343a40" stroke-width="1.5" fill="none"></path></g></g><mask></mask><g stroke-linecap="round"><g transform="translate(1410 670) rotate(0 100 -30)"><path d="M0 0 C74.48 -24.26, 149.48 -44.81, 200 -60" stroke="#343a40" stroke-width="1.5" fill="none" stroke-dasharray="8 9"></path></g><g transform="translate(1410 670) rotate(0 100 -30)"><path d="M175.84 -42.22 C184.71 -49.41, 194.23 -53.98, 200 -60" stroke="#343a40" stroke-width="1.5" fill="none"></path></g><g transform="translate(1410 670) rotate(0 100 -30)"><path d="M170.06 -61.91 C181.06 -61.81, 192.73 -59.04, 200 -60" stroke="#343a40" stroke-width="1.5" fill="none"></path></g></g><mask></mask><g transform="translate(1239.4333381652832 250) rotate(0 79.32499694824219 17.5)"><text x="79.32499694824219" y="0" font-family="Virgil, Segoe UI Emoji" font-size="28px" fill="#1e1e1e" text-anchor="middle" style="white-space: pre;" direction="ltr" dominant-baseline="text-before-edge">Sub Layer 1</text></g><g transform="translate(610 930) rotate(0 209.8249969482422 12.5)"><text x="0" y="0" font-family="Virgil, Segoe UI Emoji" font-size="20px" fill="#1e1e1e" text-anchor="start" style="white-space: pre;" direction="ltr" dominant-baseline="text-before-edge">Sub Layer 1: abstracts away the dtabase</text></g><g transform="translate(610 970) rotate(0 230.14166259765625 12.5)"><text x="0" y="0" font-family="Virgil, Segoe UI Emoji" font-size="20px" fill="#1e1e1e" text-anchor="start" style="white-space: pre;" direction="ltr" dominant-baseline="text-before-edge">Sub Layer 2: abstracts away the ORM library</text></g><g transform="translate(719.4333343505859 250) rotate(0 85.5 17.5)"><text x="85.5" y="0" font-family="Virgil, Segoe UI Emoji" font-size="28px" fill="#1e1e1e" text-anchor="middle" style="white-space: pre;" direction="ltr" dominant-baseline="text-before-edge">Sub Layer 2</text></g><g transform="translate(950 110) rotate(0 147.3333282470703 17.5)"><text x="147.3333282470703" y="0" font-family="Virgil, Segoe UI Emoji" font-size="28px" fill="#1e1e1e" text-anchor="middle" style="white-space: pre;" direction="ltr" dominant-baseline="text-before-edge">Infrastructure Layer</text></g><g transform="translate(128.43333435058594 110) rotate(0 128.89999389648438 17.5)"><text x="128.89999389648438" y="0" font-family="Virgil, Segoe UI Emoji" font-size="28px" fill="#1e1e1e" text-anchor="middle" style="white-space: pre;" direction="ltr" dominant-baseline="text-before-edge">Core Domain Layer</text></g><g stroke-linecap="round" transform="translate(1210 410) rotate(0 100 50)"><path d="M0 0 C64.72 -2.45, 131.92 -3.34, 200 0 M0 0 C67.19 -2.07, 135.75 -1, 200 0 M200 0 C200.4 27.1, 197.53 52.56, 200 100 M200 0 C201.56 28.34, 201.18 57.71, 200 100 M200 100 C142.45 102.4, 87.03 101.25, 0 100 M200 100 C126.81 99.47, 54.42 100.24, 0 100 M0 100 C-1.47 68.92, 1.75 35.36, 0 0 M0 100 C0.69 63.99, -0.72 28.61, 0 0" stroke="#1e1e1e" stroke-width="2" fill="none"></path></g><g transform="translate(1267.558334350586 447.5) rotate(0 42.44166564941406 12.5)"><text x="42.44166564941406" y="0" font-family="Virgil, Segoe UI Emoji" font-size="20px" fill="#1e1e1e" text-anchor="middle" style="white-space: pre;" direction="ltr" dominant-baseline="text-before-edge">typeORM</text></g><g transform="translate(1350 510) rotate(0 29.866666793823242 12.5)"><text x="59.733333587646484" y="0" font-family="Virgil, Segoe UI Emoji" font-size="20px" fill="#1e1e1e" text-anchor="end" style="white-space: pre;" direction="ltr" dominant-baseline="text-before-edge">library</text></g><g stroke-linecap="round" transform="translate(1210 610) rotate(0 100 50)"><path d="M0 0 C72 -2.13, 147.12 0.75, 200 0 M0 0 C62.58 -2.13, 126.73 -1.93, 200 0 M200 0 C199.54 30.47, 201.96 58.22, 200 100 M200 0 C201.12 25.42, 199.83 52.99, 200 100 M200 100 C157.58 98.79, 113.51 97.29, 0 100 M200 100 C142.42 99.89, 83.81 99.8, 0 100 M0 100 C0.94 72.22, -0.24 40.98, 0 0 M0 100 C-0.94 62.02, -0.01 25.17, 0 0" stroke="#1e1e1e" stroke-width="2" fill="none"></path></g><g transform="translate(1269.191665649414 647.5) rotate(0 40.80833435058594 12.5)"><text x="40.80833435058594" y="0" font-family="Virgil, Segoe UI Emoji" font-size="20px" fill="#1e1e1e" text-anchor="middle" style="white-space: pre;" direction="ltr" dominant-baseline="text-before-edge">liquibase</text></g><g transform="translate(1312.8833351135254 710) rotate(0 48.42499923706055 12.5)"><text x="96.8499984741211" y="0" font-family="Virgil, Segoe UI Emoji" font-size="20px" fill="#1e1e1e" text-anchor="end" style="white-space: pre;" direction="ltr" dominant-baseline="text-before-edge">framewrok</text></g><g stroke-linecap="round"><g transform="translate(1270.0000005511897 710) rotate(0 -2.755948003141384e-7 48)"><path d="M0 0 C0.81 20.48, 1.06 38.95, 0 96" stroke="#343a40" stroke-width="1.5" fill="none" stroke-dasharray="8 9"></path></g><g transform="translate(1270.0000005511897 710) rotate(0 -2.755948003141384e-7 48)"><path d="M-9.84 67.66 C-6.77 74.39, -4.52 79.08, 0 96" stroke="#343a40" stroke-width="1.5" fill="none"></path></g><g transform="translate(1270.0000005511897 710) rotate(0 -2.755948003141384e-7 48)"><path d="M10.68 67.96 C9.57 74.57, 7.64 79.2, 0 96" stroke="#343a40" stroke-width="1.5" fill="none"></path></g></g><mask></mask><g stroke-linecap="round"><g transform="translate(1208 470) rotate(0 -78.5 0)"><path d="M0 0 C-39.15 0.81, -78.54 1.65, -157 0" stroke="#343a40" stroke-width="1.5" fill="none" stroke-dasharray="8 9"></path></g><g transform="translate(1208 470) rotate(0 -78.5 0)"><path d="M-128.66 -9.85 C-135.14 -7.35, -141.77 -4, -157 0" stroke="#343a40" stroke-width="1.5" fill="none"></path></g><g transform="translate(1208 470) rotate(0 -78.5 0)"><path d="M-128.96 10.67 C-135.17 7.94, -141.72 6.07, -157 0" stroke="#343a40" stroke-width="1.5" fill="none"></path></g></g><mask></mask><g stroke-linecap="round" transform="translate(10 10) rotate(0 950 550)"><path d="M0 0 C731.35 -0.6, 1462.78 -1.08, 1900 0 M1900 0 C1898.79 260, 1898.71 519.43, 1900 1100 M1900 1100 C1510.02 1105.83, 1120.52 1104.51, 0 1100 M0 1100 C2.1 670.67, 2.84 240.52, 0 0" stroke="#343a40" stroke-width="1.5" fill="none" stroke-dasharray="8 9"></path></g></svg>