<svg version="1.1" xmlns="http://www.w3.org/2000/svg" viewBox="0 0 1496.717126533389 1062.0780104324222" width="1496.717126533389" height="1062.0780104324222">
  <!-- svg-source:excalidraw -->
  
  <defs>
    <style class="style-fonts">
      @font-face {
        font-family: "Virgil";
        src: url("https://excalidraw.com/Virgil.woff2");
      }
      @font-face {
        font-family: "Cascadia";
        src: url("https://excalidraw.com/Cascadia.woff2");
      }
      @font-face {
        font-family: "Assistant";
        src: url("https://excalidraw.com/Assistant-Regular.woff2");
      }
    </style>
    
  </defs>
  <rect x="0" y="0" width="1496.717126533389" height="1062.0780104324222" fill="#ffffff"></rect><g stroke-opacity="0.4" fill-opacity="0.4" stroke-linecap="round" transform="translate(10 90.4636128693819) rotate(0 700 450)"><path d="M0 0 C0 0, 0 0, 0 0 M0 0 C0 0, 0 0, 0 0 M-1.8 13.94 C0.67 7.22, 3.97 5.89, 13.69 1.58 M-0.03 10.79 C2.6 8.72, 4.39 7.53, 9.89 0.75 M2.46 21.13 C2.91 19.55, 14.2 11.78, 18.42 -0.52 M1.93 23.61 C4.22 15.96, 10.18 10.71, 21.49 0.09 M0.05 38.74 C5.54 26.02, 12.52 23.82, 30.43 1.2 M-1.5 38.33 C11.18 22.32, 22.95 8.68, 31.78 -1.34 M3.03 47.82 C15.54 32.58, 34.44 8.48, 41.66 2.55 M1.16 48.93 C8.71 38.76, 19.8 25.63, 41.68 -1.06 M-0.2 60.63 C19.13 38.99, 37.89 17.66, 53.64 3.82 M0.42 61.42 C16.98 40.12, 36.63 20.95, 53 0.91 M1.77 73.61 C18.83 47.93, 41.79 27.15, 66.7 -2.26 M-1.84 72.69 C18.81 53.34, 33.31 30.24, 62.02 0.43 M-0.84 87.6 C20.87 67.83, 37.81 40.96, 76.52 -3.05 M0.71 85.55 C24.78 56.73, 48.27 29.19, 73.23 -0.46 M-3.16 96.12 C15.4 75.47, 32.47 57.48, 86.59 -2.46 M-0.01 99.73 C16.53 75.77, 34.51 57.64, 85.08 0.71 M-2.49 109.88 C30.8 78.15, 57.6 44.53, 96.76 -1.52 M1.8 111.12 C33.02 71.93, 66.71 31.41, 95.72 1.04 M2.22 124.73 C25.39 86.95, 56.96 60.43, 107.67 -2.81 M-0.29 122.53 C35.01 80.52, 70.92 41.31, 104.78 -1.44 M1.5 130.21 C23.78 103.57, 59.59 66.7, 116.66 1.77 M-0.59 134.92 C41.46 85.22, 80.29 36.67, 114.44 -0.76 M3.2 145.8 C51.43 85.95, 100.95 30.32, 124.84 -0.54 M-0.21 146.43 C32.93 108.33, 64.47 72.93, 125.79 0.16 M-3.23 160.84 C44.38 106, 94.5 49.96, 137.69 -2.89 M-1.75 159.29 C49.99 104.42, 102.05 47.49, 136.79 0.35 M-1.45 168.8 C43.03 116.5, 97.14 55.6, 148.22 3.09 M-1.67 171.32 C54.88 109.54, 112.98 43.94, 149.82 0.05 M-0.61 186.14 C50.55 129.85, 89.82 74.71, 157.05 -1.53 M0.18 182.52 C60.74 116.98, 116.71 51.37, 159.12 -0.38 M1.11 197.64 C53.02 129.25, 107.01 64.37, 167.67 1.46 M1.42 194 C63.82 119.71, 127.04 45.92, 169.17 1.28 M-1.04 208.19 C69.77 123.65, 140.01 40.3, 177.15 2.29 M1.47 207.08 C47.58 152.93, 93.53 100.42, 179 1.29 M-2.58 219.01 C41.03 171.89, 82.84 126.47, 192.57 0.27 M-1.02 219.61 C53 154.81, 110.54 91.39, 190.37 1.56 M-2.93 233.63 C71.52 155.54, 134.98 74.95, 203.62 -0.91 M-1.38 231.14 C68.55 158.45, 133.84 82.01, 199.88 -1.18 M0.32 241.79 C45.4 185.31, 92.42 133.4, 211.06 -2.63 M-0.71 242.78 C61.21 174.95, 122.57 104.38, 212.24 0.99 M0.29 253.73 C75.23 159.77, 156.64 71.57, 222.5 2.58 M1.24 255.74 C67.4 172.99, 137.98 91.8, 223.91 -0.1 M0.31 268.51 C73.61 182.05, 144.32 96.16, 233.37 0.74 M1.26 268.3 C58.75 201.88, 117.79 134.96, 233.46 -1.18 M-0.59 278.91 C69.81 204.25, 132.94 130.54, 241.86 2.13 M-1.24 280.9 C81.24 183.06, 165.55 85.51, 244.74 -0.62 M-1.77 290.84 C67.4 221.55, 130.61 147.05, 255.75 0.96 M-1.24 291.89 C102.52 178.27, 204.19 61.54, 255.09 0.84 M2.18 304.17 C65.81 227.14, 132.29 151.55, 265.98 -1.45 M-0.79 305.51 C67.37 229, 133.38 153.23, 264.37 -0.44 M-0.66 317.56 C90.55 212.5, 180.03 106.67, 274.04 -0.57 M-0.19 316.42 C83.04 220.62, 165.16 127.46, 275.39 -0.53 M-1.34 327.09 C79.21 241.68, 152.47 156.44, 287.98 0.16 M0.07 329.88 C56.76 264.36, 115.88 197.05, 286 -0.69 M-0.28 340.92 C72.69 255.35, 150.36 171.3, 295.92 0.49 M-0.49 341.81 C66.98 263.78, 133.23 187.49, 296.81 0.63 M-0.65 353.19 C64.62 279.75, 129.91 202.51, 309.37 0.68 M-0.88 353.86 C94.84 243.41, 188.78 134.46, 307.73 -0.92 M1.17 366.72 C80.72 270.69, 164.92 174.03, 318.15 -0.58 M0 366.58 C66.91 290.56, 131.27 215.87, 318.89 -1.12 M1.64 376.89 C129.8 227.9, 259.48 77.99, 330.08 -1.14 M-0.31 378.14 C131.18 230.86, 259.88 83.01, 329.65 0.2 M-0.82 390.66 C129.07 237.68, 258.57 89.86, 340.69 -1.08 M0.93 389.44 C131.93 243.75, 260.93 94.99, 339.54 -0.46 M0.79 402.48 C89.59 301.79, 181.38 195.01, 348.4 0.03 M0.09 402.13 C79.62 314.61, 157.68 225.31, 349.53 0.91 M1.19 415.33 C71.24 330.25, 146.38 244.3, 358.75 1.29 M0.19 415.07 C83.14 317.61, 167.62 221.36, 360.82 0.8 M-0.1 427.43 C84.76 325.27, 171.72 227.23, 369.42 0.03 M-0.32 426.61 C107.7 301.44, 217.44 175.68, 371.5 0 M-0.79 440.21 C111.44 312.51, 219.65 187.51, 381.09 -0.18 M0.54 438.75 C144.7 275.98, 288.97 110.63, 381.53 -0.05 M-1.71 451.64 C118.8 310.76, 242.59 167.37, 392.16 -0.23 M-0.32 451.65 C91.28 347.14, 184.21 239.2, 392.72 -0.48 M0.81 464.17 C141.98 299.89, 286.72 135.25, 403.77 -0.82 M0.26 463.07 C141.2 299.04, 283.14 136.34, 403.09 0.77 M0 474.69 C109.53 352.65, 214.18 230.06, 411.99 -1.11 M0.47 475.37 C84.2 377.81, 170 280.51, 413.93 0.21 M-0.92 488.93 C133.98 334.75, 266.58 184.75, 422.42 -0.45 M0.03 487.06 C95.47 376.75, 192.11 265.08, 424.12 0.92 M-0.4 501.15 C168.96 301.85, 341.2 102.36, 435.99 -0.26 M0.23 499.18 C127.52 356.26, 253.27 211.29, 434.03 0.65 M-0.61 512.35 C95.88 397.97, 195.48 284.93, 444.37 0.64 M-0.78 512.22 C95.98 397.79, 193.83 286.79, 444.6 0.72 M0.16 525.45 C103.03 403.31, 212.01 278.32, 457.34 0.97 M0.07 523.94 C143.34 361.11, 285.05 199.22, 456.47 0.49 M-0.98 535.19 C142.39 370.06, 289.91 201.02, 466.24 -1.55 M-0.4 536.47 C118.77 401.66, 235.63 267.2, 465.85 -0.08 M-0.78 548.91 C116.59 414.51, 232.86 285.79, 477.72 0.73 M-0.37 549.32 C106.61 428.31, 211.21 309.08, 476.45 0.41 M1.79 559.93 C194.07 340.98, 385.42 119.83, 486.76 1.27 M0.7 561.07 C190.47 337.57, 383.92 115.52, 487.35 -0.66 M0.19 572.11 C122.73 428.93, 247.46 287.74, 497.69 -0.13 M0.47 574.23 C143.53 400.91, 292.13 231.54, 498.51 0.54 M0.82 585.39 C116.49 449.86, 236.53 311.48, 509.96 0.9 M0.23 585.1 C130.4 437.22, 258.84 289.47, 508.31 -0.76 M-1.58 598.55 C134.49 436.8, 269.5 278.92, 519.95 -1.27 M0.12 597.22 C181.81 379.19, 367.91 166.24, 518.97 0.49 M-0.29 610.79 C197.18 381.02, 397.57 148.76, 529.16 -1.75 M0.8 609.65 C186.81 391.8, 373.04 178.39, 530.92 -0.66 M-1.04 620.68 C147.89 456.12, 289.32 290.53, 539.65 0.36 M0.31 621.78 C184.86 404.28, 374.85 186.4, 540.26 -0.72 M-1.69 634.71 C186.6 422.7, 367.14 215.13, 552.59 0.1 M-1.07 635.05 C198.14 411.13, 393.09 188.54, 550.69 0.39 M-0.6 646.46 C224.67 387.03, 446.14 135.59, 560.49 0.91 M-0.7 646 C199.48 423.01, 397.04 196.06, 561.39 0.21 M1.22 658.57 C214.36 419.07, 427.06 173.28, 571.38 -0.03 M-0.05 658.09 C143.92 496.63, 285.01 335.31, 572.51 -0.57 M1.36 671.47 C205.71 431.94, 418.13 189.75, 581.18 -0.01 M0.27 670 C208.61 428.5, 420.21 185.36, 582.05 0.36 M0.35 682.38 C203.58 447.89, 407.8 212.06, 594.09 1.19 M0.54 682.07 C209.15 436.49, 421.65 191.55, 593.94 0.05 M-0.42 693.83 C157.77 517.55, 309.46 341.88, 604.51 0.83 M0.35 694.76 C197.54 469.94, 396.38 239.19, 603.64 0.42 M-0.67 708.85 C167.1 519.44, 333.86 328.38, 614.17 1.17 M0.36 708.12 C211.86 464.37, 422.51 221.22, 614.26 -0.14 M-0.13 720.92 C195.43 497.55, 392.44 270.93, 623.79 -1.16 M0.62 719.26 C196.43 487.33, 399.3 254.64, 625.38 -0.41 M-0.55 731.51 C209.74 494.6, 419.35 255.98, 634.79 -0.95 M0.75 731.38 C244.77 449.97, 489.03 167.59, 635.35 -0.21 M1.82 742.69 C235.27 473.18, 471.83 201.89, 647.92 0.97 M-0.06 744.24 C226.36 489.95, 446.54 236.53, 646.84 0.53 M-1.74 756.03 C177.02 554.19, 355.63 345.7, 658.67 -0.87 M0.21 755.84 C131.86 605.34, 266.04 449.59, 657.88 -0.56 M0.7 767.8 C267.29 467.2, 529.62 162.87, 668.65 0.85 M0.14 768.26 C210.85 526.42, 423.52 283.2, 667.39 0.61 M1.26 781.33 C158.1 601.3, 315.67 420.74, 677.83 -1.19 M-0.4 780.33 C175.27 582.39, 344.52 388.73, 679.07 -0.51 M-0.96 792.54 C243.5 504.37, 489.61 220.45, 689.48 1.25 M-0.06 791.87 C214.33 536.41, 432.63 284.2, 689.32 -0.2 M1.27 804.93 C196.05 567.76, 399.39 336.01, 699.21 1.39 M0.76 803.79 C208.72 560.72, 416.2 321.61, 699.1 0.03 M-1.14 815.71 C271.22 507.07, 541.63 194.55, 709.57 1.21 M0.02 818.1 C240.98 545.97, 479.9 270.72, 709.88 0.74 M-0.39 830.22 C218.4 577.99, 438.62 325.13, 722.24 0.07 M0.49 829.42 C193.58 618.64, 381.22 402.51, 721.09 0.64 M0.5 842.21 C253.29 548.37, 511.53 252.03, 730.21 -0.72 M0.2 841.6 C215.13 588.67, 433.59 337.55, 730.87 -0.88 M1.67 854.65 C226.02 588.65, 454.36 327.53, 742.03 0.35 M0.5 852.79 C284.6 523.76, 567.59 198.46, 741.52 0.33 M1.22 865.89 C251.78 571.67, 506.29 277.54, 751.57 -0.09 M-0.29 865.13 C204.89 641.63, 403.74 414.22, 752.23 -0.32 M-0.49 878.18 C222.67 622.23, 446.66 362.65, 762.22 0.81 M-0.38 878.36 C182.98 675.63, 362.2 471.06, 763 -0.84 M0.4 889.69 C283.4 559.73, 571.83 229.63, 772.72 0.65 M-0.88 890.93 C175.06 696.11, 347.15 498.42, 773.68 0.21 M1.49 901.37 C173.33 691.71, 353.93 486.41, 785.33 -0.43 M2.63 899.94 C251.65 616.14, 501.93 327.03, 784.72 -0.15 M13.94 899.47 C211.59 676.52, 409.34 451.35, 794.84 -1.47 M13.17 900.84 C237.64 637.81, 467.09 376.04, 794.66 -0.45 M24.78 899.61 C218.17 674.47, 413.11 450.62, 806.39 0.63 M23.98 900.49 C247.06 643.4, 466.21 390.82, 805.6 -0.24 M34.42 899.27 C301.67 595.01, 570.93 284.58, 817.36 0.48 M32.54 901.28 C281.72 605.43, 537.29 310.65, 815.3 -0.07 M42.99 902.09 C244.45 669.08, 443.49 441.2, 825.06 1.82 M43.4 900.76 C255.68 650.21, 474.5 399.1, 826.86 -0.35 M54.56 901.29 C364.42 548.25, 668.98 196.82, 837.36 1.02 M53.7 900.35 C298.72 622.68, 539.28 345.97, 837.48 0.8 M65.6 900.54 C314.75 618.65, 566.2 327.1, 848.3 1.45 M64.54 899.96 C228.1 704.3, 397.17 508.91, 848.22 0.68 M75.71 900.07 C303.56 633.56, 531.3 371.51, 858.46 -0.34 M76.2 901.27 C346.15 585.76, 621.58 269.38, 857.63 0.08 M86.22 901.28 C315.78 637.22, 539.06 381.97, 870.36 -0.43 M85.64 900.64 C334.14 606.24, 584.75 318.3, 868.82 0.92 M95.61 901.73 C351.12 604.68, 605.85 313.34, 880.64 1.05 M96.82 901.17 C333.11 632.63, 569.1 363.2, 879.01 0.82 M107.65 899.75 C388.92 573.59, 669.62 253.44, 891.48 1.37 M106.96 900.84 C389.04 586.4, 666.25 267.59, 889.78 0.34 M117.28 899.04 C387.89 598.69, 651.77 295.43, 899.58 -0.26 M118.49 899.79 C372.31 599.02, 632.84 298.09, 901.41 0.71 M128.35 900.49 C380.31 619.12, 629.42 335.99, 910.78 -1.25 M128.5 899.64 C290.34 716.8, 450.93 531.76, 911.96 -0.06 M139.45 900.33 C398.53 592.9, 664.21 288.73, 922.64 -0.63 M139.08 901.16 C424.13 574.14, 702.74 251.33, 922.78 0.08 M148.9 901.16 C399.74 616, 642.28 336.5, 932.68 -0.88 M150 900.39 C390.19 626.33, 628.07 353.13, 932.8 0.18 M159.75 900.57 C403.13 622.14, 646.04 346.73, 943.32 -0.11 M161.01 900.74 C326.73 703.51, 492.7 513.65, 944.03 0.33 M171.98 898.91 C362.23 675.48, 556.27 448.72, 954.12 -0.24 M170.96 901.08 C324.38 715.71, 482.61 534.44, 954.26 -0.61 M181.1 900.68 C493.71 539.89, 804.15 183.17, 963.58 0.76 M181.66 899.84 C395.3 661.3, 603.03 421.27, 964.19 -0.91 M192.76 899.98 C368.37 695.72, 543.47 491.79, 974.12 0.69 M192.23 900.73 C489.99 550.95, 789.68 205.28, 974.88 0.12 M202.14 901.05 C460.58 607.75, 712.6 317.81, 987.5 0.92 M202.96 900.82 C377.17 699.29, 552.4 498.19, 985.28 -0.15 M214.93 900.52 C437.32 645.25, 660.51 389.72, 997.01 -1.81 M214.41 899.45 C430.4 653.13, 638.98 410.96, 996.13 -0.4 M223.57 901.57 C522.28 555.08, 818.83 213.33, 1008.47 -1.19 M224.97 900.7 C469.5 608.83, 718.68 324.8, 1007.44 -0.85 M234.65 899.38 C431.88 677.2, 629.85 449.8, 1016.41 0.87 M234.66 899.96 C392.64 719.59, 552.78 536.18, 1017.62 -0.73 M245.04 898.46 C408.7 709.08, 574.76 517.73, 1028.34 -1.2 M245.92 900.75 C490.17 621.21, 733.59 343.52, 1028.96 -0.62 M256.6 901.31 C500.94 614.17, 751.84 326.3, 1037.66 0.82 M256.26 899.66 C463.42 660.58, 676.25 415.74, 1038.74 0.06 M267.62 900.95 C470.65 675.8, 670.91 446.55, 1050.45 -0.93 M266.33 900.82 C503.24 636.38, 735.88 368.77, 1048.85 -0.08 M277.31 901.71 C468.65 681.76, 658.17 464.82, 1061.11 -0.01 M276.82 900.94 C502.84 654.73, 720.84 402.77, 1059.55 -0.12 M286.83 899.54 C522.66 625.64, 754.64 357.63, 1069.39 1.47 M288.44 901.17 C521.35 627.03, 760.69 352.82, 1071.01 0.57 M297.36 899.62 C574.9 583.37, 847.83 267.07, 1081.62 0.79 M298.84 900.17 C587.84 558.81, 878.83 223.92, 1080.25 0.24 M307.96 899.28 C550.03 621.56, 788.99 346.25, 1092.67 0.01 M309.06 900.57 C533.76 629.24, 764.37 365.21, 1092.34 -0.4 M320.67 899.04 C585.03 588.07, 854.39 281.57, 1103.74 0.95 M319.42 900.26 C492.49 701.68, 666.45 501.54, 1101.99 -0.45 M329.43 900.78 C487.7 717.79, 649.36 533.46, 1111.37 0.22 M330.22 901.29 C607.9 584.16, 884.16 268.78, 1113.34 0.42 M341.12 899.53 C563.88 643.22, 786.71 390.34, 1122.01 0.18 M340.85 901.19 C521.07 686.16, 705.59 475.19, 1123.15 -0.27 M351.76 900.92 C579.09 634.81, 814.65 368.17, 1134.67 0.77 M352.09 900.24 C588.48 630.18, 821.02 362.4, 1134.25 -0.55 M361.09 900.13 C523.69 722.58, 683 536.33, 1145.86 0.88 M361.99 900.79 C640.18 586.45, 910.42 276.23, 1145.05 0.54 M371.19 899.31 C575.8 672.5, 777.85 440.65, 1154.64 -0.21 M373 900.17 C591.05 650.35, 814.02 394.57, 1155.07 0.6 M381.85 899.39 C620.6 617.98, 867.1 338.2, 1167.6 -1.46 M383.04 899.56 C550.45 694.22, 725.19 493.88, 1165.58 -0.4 M392.43 901.45 C643.2 619.85, 887.73 337.39, 1175.06 1.34 M394.22 900.11 C701.75 543.32, 1011.05 188.02, 1177.16 -0.82 M403.58 901.75 C696.32 561.35, 988.4 223.85, 1188.07 0.96 M403.94 900.64 C618.08 660.64, 824.04 423.25, 1187.15 0.36 M415.92 899.53 C630.61 652.66, 849.01 407.17, 1198.61 -0.64 M415.17 900.12 C608.27 681.99, 799.39 463.46, 1198.41 -0.4 M425.36 901.57 C698.05 599.51, 959.52 296.87, 1207 -0.55 M425.99 900.21 C737.15 536.04, 1050.13 177.45, 1208.74 -0.65 M437.78 901.25 C683 606.86, 934.71 320.5, 1220.47 0.11 M436.64 899.71 C730.72 559.3, 1024.5 221.51, 1219.67 -0.71 M448.36 899.09 C686.52 625.87, 925.87 352.34, 1229.4 0.8 M447.04 900.3 C671.84 633.78, 899.95 373.03, 1229.08 0.51 M456.24 901.01 C768.22 546.69, 1072.53 197.18, 1241.1 -0.27 M457.53 899.44 C670.77 656.02, 878.44 416.12, 1239.94 -0.06 M469.46 900.47 C751.46 578.87, 1034.2 255.29, 1249.61 -1.5 M467.9 900.82 C728.62 609.4, 986.25 313.5, 1251.43 -0.72 M478.02 899.11 C787.07 540.92, 1095.45 186.53, 1263.09 0.27 M479.74 899.33 C728.92 607.3, 982.61 315.56, 1261.18 -0.51 M490.84 898.55 C759.05 587.99, 1029.91 279.61, 1273.65 -1.64 M489.11 899.5 C679.77 688.35, 864.13 474.38, 1272.42 0.11 M498.5 899.31 C671.92 704.41, 840.38 508.86, 1280.86 0.83 M499.42 901.19 C730.04 645.6, 957.75 382.71, 1282.81 0.88 M509.71 899.23 C725.15 648.69, 943.37 400.44, 1293 0.03 M510.31 900.67 C725.91 661.4, 939.26 416.66, 1292.57 -0.33 M520.31 899.39 C767.69 620.49, 1011.52 340.86, 1302.5 0.95 M520.86 900.83 C702.99 689.3, 886.25 479.33, 1302.81 1.04 M530.56 899.26 C792.31 594.09, 1057.3 291.42, 1312.78 0.4 M531.27 901.08 C696.73 703.75, 868.29 509.32, 1314.12 -0.2 M543.03 902.1 C768.97 640.06, 996.13 378.45, 1323.42 -1.26 M542.93 900.57 C825.81 577.68, 1105.61 255.49, 1324.92 0.21 M551.62 900.33 C781.83 640.27, 1008.46 381.45, 1335.08 1.32 M552.73 900.75 C863.37 548.09, 1169.93 194.18, 1335.48 0.89 M562.58 899.35 C828.03 596.55, 1097.11 287.96, 1345 0.64 M563.31 899.82 C867.51 554.52, 1172.62 202.24, 1345.29 0.54 M573.87 899.7 C768.13 677.85, 956.12 461.16, 1355.12 0.19 M574.23 900.04 C760.47 682.48, 952.79 461.78, 1357.07 0.4 M583.39 901.72 C763.45 697.37, 939.74 491.62, 1367.53 -0.19 M584.22 900.64 C743.43 718.03, 901.13 537.27, 1367.81 0.4 M593.97 900.51 C827.41 633.73, 1056.1 372.78, 1376.63 0.31 M595.08 900.33 C870.87 583.41, 1149.55 262.97, 1377.49 0.03 M605.58 900.13 C806 655.05, 1016.22 417.46, 1390.17 -1.51 M606.03 899.75 C903.23 560.27, 1202.04 216.93, 1388.14 -0.76 M617.11 899.01 C842.74 634.85, 1077.27 366.81, 1399.02 1.28 M615.93 900.85 C799.72 682.44, 983.48 472.33, 1399.83 -0.65 M628.18 900.97 C906.82 591.51, 1182.14 276.03, 1401.16 9.74 M627.26 899.71 C830.2 663.01, 1032.26 429.38, 1399.84 10.47 M637.76 900.56 C863.87 642.74, 1084.57 386.39, 1400.3 22.39 M637.17 900.3 C889.14 621.46, 1137.09 335.9, 1400.25 23.97 M649.12 900.53 C910.29 598.4, 1177.68 291.43, 1399.37 36.33 M647.8 900.93 C867.52 637.19, 1091.95 380.13, 1399.93 35.53 M658.89 900.39 C850.27 680.11, 1044.17 455.67, 1400.57 46 M658.96 900.01 C958.79 559.1, 1252.16 219.93, 1401.05 48.12 M668.42 901.02 C881.81 652.59, 1097.09 402.93, 1401.43 59.78 M670.46 900.08 C874.91 660.52, 1079.61 426.12, 1400.88 59.38 M679.19 899.66 C952.01 582.99, 1225.67 269.03, 1399.15 73.41 M679.59 900.77 C932.55 603.23, 1192.11 304.94, 1399.81 72.9 M691.42 900.93 C958.38 585.52, 1229.82 276.52, 1401.45 84.29 M691.43 899.67 C917.98 637.34, 1149.56 370.02, 1399.87 84.82 M702.64 899.01 C965.58 595.66, 1230.17 291.41, 1398.79 97.5 M701.92 899.63 C870.88 696.99, 1044.57 497.56, 1399.95 95.76 M712.73 901.47 C974.21 604.25, 1230.18 304.39, 1400.83 108.1 M713.01 900.06 C913.16 666.74, 1112.41 436.27, 1400.63 108.63 M722.5 898.6 C966.4 616.03, 1212.61 335.2, 1399.15 119.33 M722.14 899.46 C872.89 718.76, 1027.31 541.82, 1401.1 120.69 M731.63 900.88 C878.91 729.79, 1024.97 560.61, 1400.42 131.96 M733.44 900.23 C968.37 629.11, 1204.75 356.27, 1400.77 133.24 M743.1 902.03 C1006.73 595.55, 1269.36 293.29, 1398.81 145.85 M743.54 900.16 C999.97 602, 1261.42 301.39, 1399.42 144.69 M754.65 901.05 C898.93 738.1, 1042.38 577.83, 1399.43 156.32 M754.25 901.11 C905.96 730.16, 1056.36 555.86, 1400.33 157.55 M763.22 900.53 C975.51 653.99, 1186.83 409.35, 1400.4 168.46 M764.74 900.42 C1019.19 615.67, 1267.45 330.97, 1400.81 169.97 M775.67 899.24 C930.56 722.63, 1081.91 545.93, 1400.36 180.17 M774.75 900.59 C1003.13 635.8, 1236.22 367.51, 1400.28 182.14 M785 899.91 C1017.58 638.15, 1247.17 374.98, 1399.64 193.86 M785.33 900.62 C1007.49 644.16, 1231.59 387.95, 1400.27 194.8 M797.72 901.05 C1003.06 656.42, 1213.84 414.84, 1401.44 205.23 M796.28 900.03 C1003.59 662.62, 1212.48 421.52, 1399.78 205.46 M806.9 901.52 C985.05 695.76, 1160.57 493.36, 1400.16 218.83 M806.91 899.85 C935.16 761.23, 1059.54 617.23, 1399.99 218.68 M816.31 901.97 C1016.88 680.54, 1209.82 457.94, 1401.77 230.42 M818.3 900.24 C970.48 725.04, 1125.25 546.26, 1399.67 229.53 M829.49 899.81 C969.17 738.18, 1108.52 574.32, 1399.35 241.94 M829.23 899.84 C1033.65 666.96, 1238.36 432.5, 1399.95 242.84 M838.69 900.21 C1052.24 653.34, 1272.14 403.97, 1399.89 254.02 M838.44 899.88 C1048.06 664.08, 1254.57 426.73, 1399.57 255.66 M849.07 901.52 C1042.21 682.89, 1233.58 464.58, 1399.86 267.63 M850.18 900.2 C1040.05 675.02, 1235.24 451.07, 1399.84 266.34 M861.36 899.86 C1003.25 743.86, 1140.86 583.31, 1399.11 280.35 M860.47 900.26 C977.51 756.97, 1100.01 617.15, 1399.81 279.97 M870.4 900.1 C1018.34 737.82, 1163.45 571.41, 1402.04 291.19 M870.63 899.96 C1019.29 723.77, 1171.33 548.73, 1401.13 291.84 M882.96 901.31 C1014.35 743.92, 1150.65 589.37, 1399.63 302.72 M881.53 900.56 C1057.24 698.99, 1230.86 497.63, 1400.15 303.51 M890.76 901.31 C1037.55 731.43, 1182.68 563.42, 1399.3 316.84 M892.75 900.79 C1085.04 681.21, 1278.25 458.85, 1400.75 316.45 M904.23 901.28 C1043.63 735.84, 1189.17 571.02, 1400.59 326.74 M903.27 899.37 C1072.17 704.3, 1240.96 511.77, 1400.07 328.36 M912.73 900.79 C1010.86 789.12, 1109.79 677.89, 1399.39 338.86 M913.72 900.66 C1091.47 688.01, 1272.68 478.18, 1399.66 340.14 M924.77 899.15 C1112.09 683.83, 1303.84 467.83, 1401.97 352.04 M923.93 899.58 C1113.16 685.31, 1300.54 472.13, 1400.8 352.21 M934.58 900.08 C1034.29 785.41, 1134.5 674.23, 1400.56 362.9 M935.22 900.13 C1100.85 708.3, 1265.53 519.34, 1401.37 364.56 M946.32 900.23 C1041.81 794.8, 1135.04 684.47, 1400.04 377.58 M944.68 900.28 C1121.62 693.55, 1299.61 488.17, 1400.67 376.8 M956.69 900.24 C1081.29 760.78, 1201.92 620.88, 1399.99 387.72 M955.5 899.25 C1100.82 731.72, 1246.19 565, 1399.55 389.25 M965.65 900.47 C1102.92 743.32, 1243.33 585.02, 1398.97 401.99 M965.79 900.8 C1125.03 718.35, 1284.49 534.82, 1400.38 400.32 M977.68 899.37 C1114.54 744.89, 1250.11 585.96, 1398.92 412.5 M976.71 901.47 C1080.25 787.67, 1180.84 671.15, 1400.78 412.49 M986.8 899.45 C1108.01 763.62, 1226.06 629.05, 1399.91 425.7 M987.64 900.84 C1104.14 767.38, 1217.79 635.98, 1400.03 425.86 M997.04 899.21 C1095.59 782.58, 1198.57 664.96, 1401.27 438.96 M997.91 901 C1145.85 737.87, 1290.28 570.41, 1400.77 438.27 M1007.54 901.73 C1101.56 789.83, 1195.13 679.83, 1399.66 448.58 M1008.41 900.22 C1087.93 807.14, 1167.86 714.88, 1399.47 449.56 M1017.59 900.06 C1145.1 757.43, 1266.97 615.59, 1399.67 462.08 M1019.14 900.2 C1133.64 770.24, 1246.3 639.89, 1400.82 462.19 M1028.4 901.01 C1139.71 775.06, 1248.55 648.44, 1399.11 474.19 M1029.86 900.65 C1170.59 741.88, 1311.14 580.17, 1400.26 474.34 M1041.71 900.97 C1173.41 744.9, 1305.37 589.56, 1399.69 485.02 M1040.85 900.11 C1178.45 742.19, 1318.64 580.97, 1399.99 486.36 M1052 900.09 C1154.35 779.38, 1260.54 656.47, 1398.63 498.99 M1050.33 900.1 C1174.88 764.7, 1294.79 625.31, 1399.48 499.21 M1061.07 900.5 C1129.78 820.04, 1199.75 740.67, 1399.41 510.42 M1061.64 901.2 C1160.42 787.2, 1260.88 672.53, 1400.3 510.76 M1073.46 901.27 C1172.96 780.84, 1274.58 666.08, 1400.1 522.3 M1072.68 900.77 C1199.8 753.05, 1327.43 605.72, 1399.79 522.8 M1082.2 899.84 C1208.37 756.23, 1332.78 610.59, 1400.99 534.98 M1083.06 900.22 C1151.38 819.77, 1222.37 740.85, 1400.7 535.78 M1093.17 899.89 C1194.54 789.59, 1288.74 677.27, 1398.96 548.62 M1093.08 899.44 C1193.85 784.32, 1293.93 670.71, 1399.96 547.03 M1104.34 899.78 C1184.51 806.81, 1267.47 713.86, 1399.44 561.37 M1104.92 899.66 C1192.53 799.47, 1280.48 698.93, 1400.47 559.19 M1113.52 900.7 C1199.74 802.69, 1283.75 704.26, 1399.82 571.52 M1113.88 900.85 C1195.95 802.99, 1279.59 708.14, 1400.47 571.68 M1125.2 900.87 C1222.21 781.7, 1323.26 669.98, 1401.93 584.69 M1124.47 900.29 C1230.76 780.62, 1333.68 662.05, 1401.35 583.93 M1136.85 901.14 C1194 837.39, 1250.16 769.51, 1401.12 596.05 M1136.01 900.01 C1233.16 785.82, 1333.69 671.84, 1401.54 595.24 M1144.42 898.38 C1225.6 804.99, 1312.02 707.24, 1399.89 610.2 M1146.87 899.95 C1211.51 823.9, 1274.63 750.56, 1399.92 607.84 M1159.64 901.49 C1242.35 799.42, 1330.36 701.44, 1400.45 622.78 M1157.84 901.15 C1247.2 790, 1339.38 683.94, 1399.86 620.87 M1170.23 900.34 C1220.56 843.07, 1272.25 784.12, 1397.98 630.74 M1168.73 899.85 C1229.47 830.58, 1290.12 761.17, 1399.28 633.53 M1180.34 901.37 C1230.09 845.58, 1275.6 789.88, 1401.19 642.4 M1179.28 901.24 C1233.6 837.62, 1286.31 773.84, 1401.65 645.75 M1189.52 900.23 C1249.08 834.74, 1304.06 773.19, 1398.52 655.21 M1190.39 900.74 C1241.55 840.99, 1292.26 780.2, 1400.9 658.11 M1200.13 900.15 C1244.84 843.95, 1293.21 791.19, 1397.11 668.32 M1199.15 901.66 C1249.4 842.83, 1297.34 789.58, 1400.3 668.54 M1211.92 900.95 C1255.67 852.72, 1301.13 798.51, 1402.67 682.4 M1211.2 900.31 C1283.33 815.83, 1357.23 731.2, 1400.44 682.32 M1220.74 899.79 C1263.15 845.7, 1307.28 798.15, 1399.6 695.25 M1220.73 900.73 C1284.14 822.03, 1351.68 746.11, 1398.83 695.37 M1230.91 902.93 C1276.95 846.53, 1322.92 792.26, 1398.82 706.99 M1232.04 901.56 C1271.67 854.32, 1308.51 813, 1400.19 706.84 M1239.75 897.91 C1277.44 855.74, 1316.69 819.62, 1398.94 717.74 M1242.11 901.19 C1296.44 835.96, 1354.01 772, 1401.75 719.23 M1253.94 901.41 C1301.55 844.36, 1351.91 790.73, 1401.01 731.32 M1251.14 899.64 C1306.55 836.49, 1367.16 770.93, 1399.67 731.38 M1259.6 903.5 C1310.7 850.79, 1355.93 795.34, 1401.46 741.68 M1264.62 900.84 C1300.42 859.26, 1338.59 813.19, 1400.24 743.72 M1274.3 903.1 C1303.88 862.77, 1340.99 818.23, 1398.36 753.83 M1273.91 900.74 C1305.99 861.91, 1340.37 824.32, 1400.71 754.54 M1280.54 904.36 C1316.41 863.12, 1346.4 820, 1399.72 763.26 M1285.67 899.22 C1321.2 857.21, 1362.23 814.38, 1399.62 765.95 M1296.12 898.75 C1336.15 853.98, 1373.05 810.89, 1403.89 782.23 M1294.81 899.65 C1335.03 856.51, 1373.34 815.66, 1398.59 779.87 M1309.09 898.77 C1344.96 861.47, 1377.87 818.49, 1402.75 788.77 M1305.01 898.75 C1326.55 876.61, 1350.74 851.76, 1399.28 792.53 M1313.85 901.87 C1343.04 878.36, 1357.63 853.09, 1396.95 807.12 M1314.64 900.93 C1343.06 870.96, 1369.61 841.71, 1399.78 801.79 M1323.61 901.89 C1346.66 873.36, 1368.95 852.64, 1396.5 819.67 M1326.54 900.5 C1343.98 880.94, 1360.43 860.42, 1400.42 813.94 M1334.92 900.59 C1354.03 878.42, 1377.45 858.21, 1403.9 831.49 M1337.77 899.94 C1356.95 878.49, 1378.17 855.59, 1400.15 826.93 M1348.16 903.18 C1357.2 883.11, 1373.23 867.28, 1401.98 842.58 M1349.33 900.13 C1367.14 881.18, 1385.37 861.06, 1401.62 841.38 M1356.03 897.78 C1370.11 883.75, 1385.88 872.66, 1397.75 852.1 M1359.95 898.63 C1369.14 886.66, 1378.78 875.55, 1400.32 851.59 M1372.06 898.92 C1373.24 893.51, 1386.61 880.33, 1397.49 866.88 M1367.8 899.92 C1379.32 892.38, 1385.72 883.13, 1400.87 864.73 M1379.11 903.06 C1390.84 891.04, 1395.1 885.52, 1399.37 877.44 M1380.3 901.62 C1387.56 891.19, 1394.27 882.08, 1398.92 875.66 M1390.05 900.09 C1390.39 898.14, 1395.23 893.16, 1400.5 890.02 M1391.48 900.61 C1391.87 895.79, 1395.07 895.42, 1401.2 889.82" stroke="#ffec99" stroke-width="1" fill="none"></path><path d="M-0.53 -1.26 C406.95 7.08, 812.5 7.76, 1399.45 -0.76 M0.72 0.15 C387.81 4.73, 776.99 4.65, 1400.38 0.55 M1400.78 -1.01 C1396.83 314.9, 1399.27 628.65, 1401.3 898.63 M1400.67 0.03 C1402.07 335.5, 1401.6 669.97, 1399.55 900.09 M1399.73 898.94 C926.06 894.36, 450.58 895.68, -1.53 898.63 M1400.34 900.46 C932.11 902.05, 464.57 901.8, 0.67 900.58 M0.01 900.83 C-5.04 687.5, -6.02 474.13, 1.58 -1.14 M0.25 899.69 C-2.46 590.87, -3.38 280.29, -0.39 0.35" stroke="#868e96" stroke-width="2" fill="none"></path></g><g stroke-opacity="0.7" fill-opacity="0.7" transform="translate(1270.6416702270508 850.8219426423311) rotate(270 121.85832977294922 12.5)"><text x="243.71665954589844" y="0" font-family="Virgil, Segoe UI Emoji" font-size="20px" fill="#868e96" text-anchor="end" style="white-space: pre;" direction="ltr" dominant-baseline="text-before-edge">Application Service Layer</text></g><g stroke-opacity="0.7" fill-opacity="0.7" stroke-linecap="round" transform="translate(110 290.4636128693819) rotate(0 200 250)"><path d="M0 0 C0 0, 0 0, 0 0 M0 0 C0 0, 0 0, 0 0 M-2.82 14.91 C5.03 4.63, 6.93 0.01, 13.1 1.11 M1.32 12.11 C4.13 6.93, 6.6 5.59, 10.32 -1.31 M-0.15 24.42 C8.98 15.56, 12.98 9.23, 23.86 1.47 M-1.59 24.1 C9.49 13.05, 16.16 3.62, 21.07 0.11 M-0.39 40.61 C11.31 22.09, 24.73 7.1, 29.54 2.27 M0.02 35.41 C11.21 23.85, 24.61 9.39, 32.65 -0.99 M0.26 52.77 C15.26 29.81, 27.95 14.65, 45.94 -0.8 M-2.03 48.35 C8.74 35.96, 20.02 27.47, 42.09 1.38 M-1.79 57.16 C9.63 48.99, 19.35 32.24, 50.59 0.55 M-1.23 60.92 C11.53 48.66, 23.78 34.67, 51.2 -0.82 M-3.15 74.21 C20.59 45.56, 49.75 20.2, 59.82 -0.96 M0.29 74.03 C23.47 45.67, 42.74 22.16, 64.26 0.29 M2.4 88.78 C22.5 64.15, 36.34 42.56, 77.31 -0.66 M0.89 86.47 C17.51 66.78, 34.28 43.85, 73.76 -1.26 M-4.24 94.38 C27.25 69.13, 48.22 48.76, 82.56 -2.5 M0.45 97.99 C21.71 71.63, 46.79 46.65, 86.15 0.99 M3.6 109.71 C31.02 75.78, 61.41 40.51, 99.4 0.52 M0.8 108.47 C24.12 84.61, 47.83 56.69, 95.58 0.15 M2.98 122.64 C35.75 78.18, 73.83 29.83, 104.48 -2.19 M-0.5 120.71 C34.55 82.99, 66.37 44.82, 105.68 -1.73 M0.43 130.71 C40.35 84.19, 76.91 39.28, 119.14 -2.53 M-1.76 135.68 C38.87 85.73, 80.82 38.94, 114.62 1.28 M3.81 145.37 C53.32 88.12, 102.59 35.18, 128.49 2.73 M-0.09 147.53 C48.1 93.3, 93.14 43.54, 127.51 2.28 M1.87 156.56 C51.3 103.22, 98.08 45.34, 137.98 3.6 M1.48 158.57 C32.9 121.63, 64.2 85.36, 138.12 0.31 M-2.77 171.56 C37.54 127.31, 72.93 81.72, 148.64 3.03 M-0.43 170.48 C48.23 119.51, 96.58 65.8, 149.44 -0.34 M1.57 185.98 C41.47 136.64, 83.19 88.25, 160.51 2.63 M1.42 183.02 C43.28 139.85, 80.57 92.9, 158.99 0.35 M2.96 191.93 C39.55 147.6, 82.9 103.55, 170.35 0.32 M1.24 193.96 C53.88 133.5, 106.63 72.57, 167.87 1.26 M3.21 207 C64.82 126.46, 137.07 49.41, 181.82 -0.3 M1.72 207.88 C63.21 142.84, 120.23 75.11, 181.46 -1.19 M0.52 219.41 C73.3 138.01, 146.49 52.2, 189.71 -0.3 M-1.69 219.51 C73.73 137.97, 145.34 52.85, 192.02 1.1 M1.63 232.99 C75.19 141.63, 157.05 54.17, 202.07 -2.13 M-1.28 231.47 C60.24 159.24, 120.29 89.13, 202.4 1.51 M-2.47 243.31 C59.96 178.05, 116.7 105.09, 213.17 -1.31 M-1.11 244.71 C55.39 178.9, 111.6 112.07, 211.56 -0.53 M-1.61 254.91 C74.91 170.06, 144.01 85.99, 224.97 -1.44 M-0.79 254.99 C81.25 159.55, 165.91 63.01, 221.79 1.01 M1.49 267.13 C71.61 182.31, 148.06 102.49, 233.29 -0.19 M-0.81 268.76 C65.32 195.17, 127.85 121.97, 234.01 0.89 M0.64 282.86 C49.86 223.05, 100.27 160.86, 241.58 1.9 M0.48 281.08 C54.16 217.5, 108.41 157.53, 244.22 0.95 M1.55 292.9 C57.96 222.94, 117.67 153.71, 252.66 -0.67 M0.58 292.85 C53.69 226.73, 108.46 164.37, 254.91 0.63 M0.41 307.02 C57.54 240.5, 112.4 175.19, 266.76 -1.85 M0.12 305.91 C80.8 213.17, 158.1 122.47, 265.76 0.96 M-0.92 314.98 C101.32 199.14, 201.18 82.9, 275.94 -1.7 M1.1 317.25 C70.28 232.33, 140.67 150.7, 275.14 -1.02 M1.54 330 C77.93 233.63, 160.03 139.86, 284.56 0.64 M0.81 327.92 C107.13 207.2, 214.06 83.22, 285.4 0.02 M-0.58 343.22 C111.33 213.28, 221.71 84.52, 297.07 0.74 M-1.09 342.04 C82.89 241.58, 168.03 144.12, 296.98 -0.57 M1.4 353.37 C103.02 229.23, 211.66 106.98, 308.95 -0.85 M0.15 353.21 C103.02 231.94, 209.49 109.01, 307.79 0.58 M-0.02 366.93 C103.66 242.59, 206.98 124.76, 317.83 -1.78 M0.03 365.9 C98.61 251.07, 196.64 137.99, 318.11 0.12 M-1.01 378.91 C98.71 266.63, 196.43 154.4, 328.05 -0.24 M-0.26 378.13 C80.88 283.69, 164.72 187.93, 329.04 0.31 M-0.4 389.92 C80.53 293.41, 161.76 202.21, 338.32 0.46 M0.29 389.17 C95.37 277.73, 191.72 166.92, 339.94 -0.72 M-0.73 403.97 C133.79 254.09, 266.05 101.51, 350.31 0.8 M-0.34 402.29 C92.02 297.19, 181.12 195.51, 350.25 0.98 M-0.85 414.45 C105.46 292.97, 211.8 168.33, 359.93 -0.11 M-0.72 414.77 C100.89 297.85, 202.3 180.77, 359.55 0.3 M-1.28 425.98 C84.73 334.87, 163.93 239.93, 371.27 1.46 M0.79 426.54 C93.33 322, 186.14 216.14, 370.75 -0.36 M0.3 439.99 C102.42 320.36, 204.45 203.19, 381.8 -0.52 M-0.24 438.01 C125.07 298.9, 248.29 158.11, 380.59 0.42 M-0.15 451.25 C85.84 354.7, 167.54 260.11, 393.14 -0.54 M-0.48 450.95 C104.51 329.44, 207.98 211.48, 392.5 -0.07 M1.04 462.21 C115.85 331.99, 228.58 198.31, 400.6 3.72 M0.02 463.1 C139.6 304.07, 277.56 146.38, 400.26 3.23 M0.3 476.16 C129.34 326.55, 259.57 175.71, 401.39 15.94 M-0.55 475.24 C104.19 356.46, 205.45 240.12, 399.92 14.48 M0.85 489.23 C91.9 382.73, 184.57 276.29, 399.39 27.7 M0.72 487.46 C86.35 384.57, 171.94 284.29, 399.83 27.7 M1.04 498.88 C110.55 369.62, 220.3 239.32, 401.93 40.8 M0.33 499.22 C126.32 359.26, 249.36 217.85, 400.36 39.05 M9.19 500.44 C157.11 331.05, 305.59 159.24, 400.03 50.76 M10.13 500.51 C144.62 341.16, 280.79 183.02, 400.19 52.17 M19.73 499.3 C167.8 333.03, 312.02 164.63, 401.57 64.4 M21.1 499.6 C113.43 390.31, 208.86 282.2, 399.68 64.96 M32.95 499.79 C166.54 346.09, 303.15 190.54, 400.44 76.98 M31.63 500.19 C135.77 381.92, 239.64 262.87, 400.78 76.49 M42.52 499.66 C150.57 373.3, 257.38 245.99, 400.09 89.77 M41.98 500.19 C124.16 404.2, 206.24 311.26, 400.79 88.19 M52.65 501.84 C189.27 344.97, 325.48 188.52, 401.25 100.17 M52.67 499.8 C145.69 391.27, 239.94 283.65, 399.75 101.39 M63.88 499.82 C158.92 392.42, 255.08 285.03, 399.95 112.88 M63.6 500.76 C174.86 371.53, 284.83 246.84, 400.54 113.6 M74.23 502.22 C147.66 416.89, 217.83 333.27, 401.4 126.63 M72.51 501.66 C178.6 377, 286.05 254.03, 399.25 125.61 M83.55 502.43 C181.81 385.77, 281.17 273.46, 398.64 135.64 M84.78 500.5 C197.45 370.68, 310.86 240.07, 399.7 137.71 M94.87 500.02 C155.32 427.58, 217.9 358.3, 399.89 148.26 M93.7 500.34 C210.95 369.78, 322.85 240.46, 400.87 149.68 M105.51 500.51 C219.82 375.68, 331.31 245.19, 399.98 163.15 M105.97 500.67 C188.43 410.03, 267.93 317.67, 399.45 162.65 M114.8 499.51 C186.85 418.07, 257.92 338.01, 401.63 172.71 M115.19 500.38 C191.86 415.21, 268.3 327.81, 399.08 173.16 M127.29 498.79 C190.22 432.93, 252.28 358.58, 398.54 185.85 M126.92 501.06 C222.19 391.09, 316.5 281.25, 400.22 187.02 M138.47 501.06 C195.24 434.02, 257.92 361.8, 401.32 199.19 M138.19 499.88 C190.84 438.9, 246.01 377.44, 401.08 198.94 M149.28 502.66 C242.8 394.86, 334.09 289.34, 401.06 210.88 M148 501.74 C240.08 389.63, 335.25 278.73, 399.59 210.95 M160.49 499.15 C254.59 389.02, 354.23 280.02, 401.12 224.13 M159.03 500.14 C234.52 414.72, 312.3 327.8, 398.85 224.02 M170.27 503.06 C232.5 428.86, 293.9 357.94, 400.1 237.03 M169.28 501.9 C245.32 420.09, 317.3 334.73, 399.25 236.02 M182.11 501.46 C261.23 407.97, 340.2 319.55, 400.08 248.83 M180.24 499.32 C234.94 438.08, 289.02 377.79, 400.04 247.61 M192.28 503.31 C278.53 401.53, 361.57 307.44, 402.42 259.08 M190.45 499.47 C235.7 442.99, 284.69 388.37, 400.52 258.08 M203.18 500.09 C260.34 424.94, 324.4 351.75, 398.34 271.25 M202.02 499.77 C278.35 413.19, 354.17 324.29, 400.59 270.58 M209.97 501.1 C284.15 426.52, 349.51 348.06, 399.94 284.77 M210.57 499.81 C269.47 431.37, 329.59 362.68, 398.52 283.19 M221.38 502.21 C255.93 458.4, 297.24 414.65, 400.45 293.78 M220.99 500.41 C268.15 446.12, 310.45 395.35, 401 295.95 M233.55 498.93 C290.36 435.64, 347.98 366.05, 402.27 306.93 M231.19 499.19 C284.39 441.89, 336.95 381.57, 399.14 308.26 M244.83 502.85 C296.01 435.85, 353.22 373.75, 398.75 322.75 M242.29 501.95 C287.8 448.07, 331.21 397.32, 400.22 320.61 M253.16 499.01 C307.5 447.13, 354.48 386.08, 403.34 331.66 M253.79 501.83 C299.03 451.31, 340.4 405.52, 400.21 330.69 M267.25 501.55 C294.74 460.32, 331.55 424.81, 399.29 347.12 M264.87 500.53 C300.11 455.8, 340.04 410, 400.5 346.34 M275.65 503.22 C308.09 468.77, 334.41 436.29, 400.36 358.16 M276 500.89 C305.95 466.29, 333.58 433.94, 398.38 356.75 M285.5 496.43 C327.48 454.33, 367.52 411.25, 402.75 371 M286.78 501.39 C324.32 453.22, 363.41 408.45, 399.51 370.72 M298.52 504.6 C328.54 465.74, 363.53 429.5, 396.91 381.24 M297.23 502.54 C325.29 471.65, 352.5 441.49, 399.29 382.88 M308.42 501.64 C331.56 467.69, 363.71 437.16, 404.19 392.6 M308.06 502.23 C337.31 466.24, 364.46 432.08, 399.51 391.62 M317.77 500.17 C339.99 473.35, 356.96 452.16, 400.6 405.48 M318.43 502.53 C335.47 477.06, 357.15 452.39, 401.5 406.22 M329.1 503.95 C344.73 478.32, 364.03 453.47, 395.96 417.43 M326.41 500.92 C354.2 472.26, 378.34 440.6, 398.52 418.13 M340.8 504.18 C358.23 478.76, 379.8 452.66, 402.44 431.22 M338.01 501.28 C360.36 473.7, 386.6 449.32, 401.56 431.72 M351.56 498.97 C358.11 487.82, 378.15 473.74, 401.69 439.25 M348.94 500.17 C368.01 475.26, 390.73 455.69, 399.76 443.52 M356.93 496.87 C370.88 485.44, 383.16 479.12, 396.71 451.85 M358.4 501.06 C374.04 482.81, 390.51 466.05, 401.44 453.23 M369.76 504.33 C380.92 489.13, 392.84 478.81, 399.64 469.54 M370.77 500.58 C377.28 490.99, 385.82 485.16, 399.25 466.72 M384.73 497.24 C389.73 491.29, 390.43 490.38, 398.95 475.49 M381.41 498.78 C388.1 496.13, 390 488.33, 398.48 479.24 M391.11 503.1 C394.77 498.59, 394.5 496.75, 399.99 491.32 M390.8 501.14 C393.24 497.61, 395.78 496.19, 399.36 490.47" stroke="#ffc9c9" stroke-width="1" fill="none"></path><path d="M0.43 -0.74 C87.52 4.72, 176.68 1.73, 401.65 1.7 M0.01 1.06 C91.62 1.91, 181.52 0.59, 400.53 0.26 M400.85 -1.4 C403.02 144.89, 401.55 288.82, 399.25 499.26 M400.29 0.45 C397.42 113.31, 397.16 225.29, 399.78 499.64 M401.18 498.33 C252.7 497.74, 106.49 498.48, 1.21 499.05 M399.15 499.98 C319.26 501.74, 237.93 501.02, 0.33 499.08 M0.73 499.18 C4.85 376.25, 4.36 256.29, 0.59 1.03 M-0.56 499.23 C0.77 331.76, 1.06 162.63, -0.79 -0.76" stroke="#868e96" stroke-width="2" fill="none"></path></g><g stroke-opacity="0.7" fill-opacity="0.7" transform="translate(390 762.4636128693819) rotate(0 56.41666793823242 12.5)"><text x="112.83333587646484" y="0" font-family="Virgil, Segoe UI Emoji" font-size="20px" fill="#868e96" text-anchor="end" style="white-space: pre;" direction="ltr" dominant-baseline="text-before-edge">core domain</text></g><g stroke-opacity="0.7" fill-opacity="0.7" transform="translate(350.3666648864746 596.4636128693819) rotate(0 28.316667556762695 12.5)"><text x="56.63333511352539" y="0" font-family="Virgil, Segoe UI Emoji" font-size="20px" fill="#868e96" text-anchor="end" style="white-space: pre;" direction="ltr" dominant-baseline="text-before-edge">entity</text></g><g stroke-linecap="round" transform="translate(210 490.4636128693819) rotate(0 100 50)"><path d="M-1.34 -0.81 C72.79 1.99, 141.29 2.02, 201.67 -3.1 M-0.62 0.31 C56.85 1.6, 117 0.95, 198.51 1.43 M203.12 2.71 C196.74 24.9, 196.96 52.28, 201.94 103.45 M201.75 0.28 C199.56 22.7, 200.14 44.68, 201.53 100.71 M197.51 100.68 C130.07 95.71, 64.98 95.57, -2.23 102.62 M199.48 100.02 C126.68 97.99, 50.94 96.02, -1.13 100.85 M-3.21 102.12 C-3.24 70.69, 3.2 34.69, 3.51 -1.89 M1.44 100.73 C2.62 75.82, 3.41 49.78, 0.48 -0.54" stroke="#e03131" stroke-width="2" fill="none"></path></g><g transform="translate(255.45833206176758 527.9636128693819) rotate(0 54.54166793823242 12.5)"><text x="54.54166793823242" y="0" font-family="Virgil, Segoe UI Emoji" font-size="20px" fill="#e03131" text-anchor="middle" style="white-space: pre;" direction="ltr" dominant-baseline="text-before-edge">Participant</text></g><g stroke-linecap="round" transform="translate(610 390.4636128693819) rotate(0 150 50)"><path d="M-0.01 2.86 C86.05 -1.73, 171.54 -1.24, 297.86 1.59 M0.32 0.25 C107.06 -1.88, 217.22 -3.11, 298.61 0.73 M300.65 -2.76 C300.34 41.06, 299.76 77.88, 302.67 101.16 M300.98 -1.35 C300.74 22.49, 302.03 44.7, 298.35 99.49 M302.57 102.22 C217.87 100.72, 130.35 97.34, -0.75 100.52 M300.66 100.09 C196.23 100.21, 93.2 98.7, -1.28 99.08 M1.79 97.35 C-2.05 62.1, 0.1 21.03, -0.8 -1.82 M-0.59 99.6 C3.48 61.88, 1.94 22.85, -0.09 0.06" stroke="#868e96" stroke-width="2" fill="none"></path></g><g transform="translate(672.0749969482422 427.9636128693819) rotate(0 87.92500305175781 12.5)"><text x="87.92500305175781" y="0" font-family="Virgil, Segoe UI Emoji" font-size="20px" fill="#868e96" text-anchor="middle" style="white-space: pre;" direction="ltr" dominant-baseline="text-before-edge">getAllParticipants</text></g><g stroke-linecap="round"><g transform="translate(590 459.30976671487275) rotate(0 -80 36.92307692330755)"><path d="M2.78 -3.66 C-50.83 20.96, -91.44 46.21, -160.88 72.83" stroke="#868e96" stroke-width="2.5" fill="none" stroke-dasharray="8 10"></path></g><g transform="translate(590 459.30976671487275) rotate(0 -80 36.92307692330755)"><path d="M-136.13 48.74 C-148.65 58.42, -149.04 68.11, -161.76 71.81" stroke="#868e96" stroke-width="2.5" fill="none"></path></g><g transform="translate(590 459.30976671487275) rotate(0 -80 36.92307692330755)"><path d="M-128.14 67.64 C-142.68 71.78, -145.4 75.96, -161.76 71.81" stroke="#868e96" stroke-width="2.5" fill="none"></path></g></g><mask></mask><g stroke-linecap="round" transform="translate(610 590.4636128693819) rotate(0 150 50)"><path d="M1.38 -0.09 C73.11 -1.48, 143.87 2.74, 301.9 -1.65 M0.07 -0.69 C113.61 1.87, 224.37 2.9, 299.49 1.29 M303.1 -2.53 C299.47 39.98, 299.41 72.86, 296.32 96.13 M301.01 -0.34 C300.24 27.51, 299.48 51.26, 300.41 99.2 M298.63 102.28 C186.13 100, 76.11 104.83, -1.29 102.02 M300.39 99.35 C218.22 103.28, 138.68 101.65, 0.34 98.55 M3.05 99.98 C2.42 68.04, -2.65 39.9, 0.44 2.16 M-0.56 99.66 C0.45 78.6, -2.09 57.64, 1.14 0.97" stroke="#868e96" stroke-width="2" fill="none"></path></g><g transform="translate(671.3666687011719 627.9636128693819) rotate(0 88.63333129882812 12.5)"><text x="88.63333129882812" y="0" font-family="Virgil, Segoe UI Emoji" font-size="20px" fill="#868e96" text-anchor="middle" style="white-space: pre;" direction="ltr" dominant-baseline="text-before-edge">updateParticipant</text></g><g stroke-linecap="round"><g transform="translate(590 622.5385852261683) rotate(0 -80 -27.58803506510884)"><path d="M-0.02 3.1 C-56.66 -17.95, -108.45 -33.96, -157.84 -58.65" stroke="#868e96" stroke-width="2.5" fill="none" stroke-dasharray="8 10"></path></g><g transform="translate(590 622.5385852261683) rotate(0 -80 -27.58803506510884)"><path d="M-127.94 -53.38 C-140.14 -58.73, -148.5 -57.04, -155.69 -62.13" stroke="#868e96" stroke-width="2.5" fill="none"></path></g><g transform="translate(590 622.5385852261683) rotate(0 -80 -27.58803506510884)"><path d="M-136.33 -34.66 C-146.09 -46.38, -151.65 -50.94, -155.69 -62.13" stroke="#868e96" stroke-width="2.5" fill="none"></path></g></g><mask></mask><g stroke-linecap="round"><g transform="translate(759.9993897105292 389.4636128693819) rotate(0 0.00019241610698372824 -49.5)"><path d="M1.43 -2.34 C-0.89 -33.21, 0.79 -56.98, 3.26 -99.26" stroke="#868e96" stroke-width="2.5" fill="none" stroke-dasharray="8 10"></path></g><g transform="translate(759.9993897105292 389.4636128693819) rotate(0 0.00019241610698372824 -49.5)"><path d="M13.32 -72.87 C9.29 -82.65, 8.37 -85.29, 6.52 -99.51" stroke="#868e96" stroke-width="2.5" fill="none"></path></g><g transform="translate(759.9993897105292 389.4636128693819) rotate(0 0.00019241610698372824 -49.5)"><path d="M-7.16 -74.04 C-5.02 -83.35, 0.22 -85.65, 6.52 -99.51" stroke="#868e96" stroke-width="2.5" fill="none"></path></g></g><mask></mask><g stroke-linecap="round"><g transform="translate(870 690.4636128693819) rotate(0 70.02916061693531 49.5)"><path d="M3.53 -2.87 C55.05 35, 107.49 70.26, 138.6 97.49" stroke="#868e96" stroke-width="2.5" fill="none" stroke-dasharray="8 10"></path></g><g transform="translate(870 690.4636128693819) rotate(0 70.02916061693531 49.5)"><path d="M113.71 85.02 C124.28 91.1, 134.75 92.75, 137.15 95.98" stroke="#868e96" stroke-width="2.5" fill="none"></path></g><g transform="translate(870 690.4636128693819) rotate(0 70.02916061693531 49.5)"><path d="M126.53 68.99 C132.1 81.31, 137.75 88.98, 137.15 95.98" stroke="#868e96" stroke-width="2.5" fill="none"></path></g></g><mask></mask><g stroke-linecap="round" transform="translate(1010 790.4636128693819) rotate(0 150 50)"><path d="M0.91 -0.5 C78.93 2.19, 156.51 -2.42, 301.85 0.77 M-1.38 -0.63 C105.72 2.76, 211.14 1.5, 300.63 -1.37 M296.32 -1 C302.06 29.25, 304.78 59.3, 298.64 99.03 M299.9 -1.89 C299.21 33.34, 302.12 68.08, 298.31 101.76 M297.85 97.59 C196.5 100.73, 85.18 102.32, -2.38 101.52 M301.15 99.66 C185.12 94.66, 67.73 94.55, 0.84 100.61 M0.64 101.37 C-1.76 75.05, -0.94 58.12, -2.52 0.92 M0.5 99.69 C-0.35 71.81, -2.16 45.31, 1.88 1.87" stroke="#6741d9" stroke-width="2" fill="none"></path></g><g transform="translate(1082.3583297729492 827.9636128693819) rotate(0 77.64167022705078 12.5)"><text x="77.64167022705078" y="0" font-family="Virgil, Segoe UI Emoji" font-size="20px" fill="#6741d9" text-anchor="middle" style="white-space: pre;" direction="ltr" dominant-baseline="text-before-edge">ParticipantDTO</text></g><g stroke-opacity="0.7" fill-opacity="0.7" transform="translate(1162 895.4636128693819) rotate(0 71.90833282470703 12.5)"><text x="143.81666564941406" y="0" font-family="Virgil, Segoe UI Emoji" font-size="20px" fill="#868e96" text-anchor="end" style="white-space: pre;" direction="ltr" dominant-baseline="text-before-edge">response model</text></g><g stroke-linecap="round" transform="translate(610 182.4636128693819) rotate(0 150 50)"><path d="M0.49 2.09 C112.53 0.51, 226.07 4.2, 299.42 -2.19 M-0.01 0.92 C69.91 0.77, 140.39 1.67, 301.13 -1.27 M297.62 1.47 C302.89 34.58, 298.18 68.19, 301.04 97.56 M299.88 0.63 C300.11 25.38, 300.25 50.11, 300.45 100.67 M297.16 102.29 C206.56 101.36, 107.95 105.43, -1.83 98.57 M299.29 99.6 C210.32 100.58, 124.6 100.46, 0.71 101.43 M2.5 97.79 C0.95 58.85, 1.24 28.01, 3.19 -1.06 M-1.62 98.89 C1.66 61.68, 2.63 24.87, 1.04 -1.04" stroke="#6741d9" stroke-width="2" fill="none"></path></g><g transform="translate(682.3583297729492 219.9636128693819) rotate(0 77.64167022705078 12.5)"><text x="77.64167022705078" y="0" font-family="Virgil, Segoe UI Emoji" font-size="20px" fill="#6741d9" text-anchor="middle" style="white-space: pre;" direction="ltr" dominant-baseline="text-before-edge">ParticipantDTO</text></g><g stroke-opacity="0.7" fill-opacity="0.7" transform="translate(770 150.4636128693819) rotate(0 68.125 12.5)"><text x="136.25" y="0" font-family="Virgil, Segoe UI Emoji" font-size="20px" fill="#868e96" text-anchor="end" style="white-space: pre;" direction="ltr" dominant-baseline="text-before-edge">request model</text></g><g stroke-linecap="round"><g transform="translate(870 390.4636128693819) rotate(0 70 -50)"><path d="M3.94 -0.4 C39.87 -30.72, 78.42 -60.09, 137.37 -100.09 M1.09 0.23 C50.4 -33.12, 96.27 -65.57, 138.07 -99.53" stroke="#868e96" stroke-width="2" fill="none"></path></g><g transform="translate(870 390.4636128693819) rotate(0 70 -50)"><path d="M138.59 -97.52 L133.87 -87.05 L119.63 -95.22 L136.89 -99.78" stroke="none" stroke-width="0" fill="#868e96" fill-rule="evenodd"></path><path d="M141.02 -99.83 C137.07 -96.71, 135.2 -94.41, 129.29 -86.24 M138.89 -99.35 C137.05 -96.6, 134.32 -91.59, 129.81 -85.81 M129.01 -85.15 C126.55 -87.45, 128.12 -91.94, 124.55 -96.64 M131.14 -87.29 C128.56 -89.19, 126.43 -94.14, 123.7 -95.7 M121.24 -93.55 C129.24 -95.59, 132.15 -100.14, 135.81 -98.32 M123.51 -95.65 C127.8 -98.8, 132.3 -96.94, 139.37 -99.73 M138.07 -99.53 C138.07 -99.53, 138.07 -99.53, 138.07 -99.53 M138.07 -99.53 C138.07 -99.53, 138.07 -99.53, 138.07 -99.53" stroke="#868e96" stroke-width="2" fill="none"></path></g></g><mask></mask><g stroke-linecap="round"><g transform="translate(1010 230.4636128693819) rotate(0 -50 0)"><path d="M-3.56 1.66 C-34.48 -0.1, -62.94 -2.46, -97.79 2.06" stroke="#868e96" stroke-width="2.5" fill="none" stroke-dasharray="8 10"></path></g><g transform="translate(1010 230.4636128693819) rotate(0 -50 0)"><path d="M-74.08 -8.77 C-81.08 -7.44, -85.78 -5.72, -95.58 4.13" stroke="#868e96" stroke-width="2.5" fill="none"></path></g><g transform="translate(1010 230.4636128693819) rotate(0 -50 0)"><path d="M-72.42 11.68 C-80.23 6.35, -85.47 1.39, -95.58 4.13" stroke="#868e96" stroke-width="2.5" fill="none"></path></g></g><mask></mask><g stroke-linecap="round" transform="translate(1010 190.4636128693819) rotate(0 150 50)"><path d="M1.93 1.85 C61.53 -5.04, 119.75 -6.39, 301.75 -1.66 M300.04 3.7 C302.63 23.32, 299.83 46.62, 299.26 97.32 M299.86 97.67 C198.13 105.62, 103.01 101.33, -0.93 102.84 M-0.87 96.79 C1.58 69.83, -1.6 48.27, 3.58 -1.21" stroke="#099268" stroke-width="2.5" fill="none" stroke-dasharray="8 10"></path></g><g transform="translate(1040.275001525879 227.9636128693819) rotate(0 119.7249984741211 12.5)"><text x="119.7249984741211" y="0" font-family="Virgil, Segoe UI Emoji" font-size="20px" fill="#099268" text-anchor="middle" style="white-space: pre;" direction="ltr" dominant-baseline="text-before-edge">&lt;&lt; getAllParticipants &gt;&gt;</text></g><g stroke-opacity="0.7" fill-opacity="0.7" transform="translate(1221.599998474121 156.4636128693819) rotate(0 42.32500076293945 12.5)"><text x="84.6500015258789" y="0" font-family="Virgil, Segoe UI Emoji" font-size="20px" fill="#868e96" text-anchor="end" style="white-space: pre;" direction="ltr" dominant-baseline="text-before-edge">boundary</text></g><g stroke-linecap="round" transform="translate(1010 590.4636128693819) rotate(0 150 50)"><path d="M-2.3 -1.86 C113.26 -4.81, 230.8 -4.73, 299.09 0.97 M296.1 -1.93 C302.73 24.31, 300.74 56.01, 301.05 101.31 M302.54 100.34 C232.05 103.3, 166.74 101.75, -0.09 97.82 M-2.84 97.64 C3.12 70.96, 0.36 39.96, -2.32 -1.18" stroke="#099268" stroke-width="2.5" fill="none" stroke-dasharray="8 10"></path></g><g transform="translate(1039.566665649414 627.9636128693819) rotate(0 120.43333435058594 12.5)"><text x="120.43333435058594" y="0" font-family="Virgil, Segoe UI Emoji" font-size="20px" fill="#099268" text-anchor="middle" style="white-space: pre;" direction="ltr" dominant-baseline="text-before-edge">&lt;&lt; updateParticipant &gt;&gt;</text></g><g stroke-opacity="0.7" fill-opacity="0.7" transform="translate(1219 559.4636128693819) rotate(0 42.32500076293945 12.5)"><text x="84.6500015258789" y="0" font-family="Virgil, Segoe UI Emoji" font-size="20px" fill="#868e96" text-anchor="end" style="white-space: pre;" direction="ltr" dominant-baseline="text-before-edge">boundary</text></g><g stroke-linecap="round" transform="translate(610 790.4636128693819) rotate(0 150 50)"><path d="M0.67 -1.3 C105.98 2.22, 213.18 0.78, 299.96 -2.11 M300.83 0.01 C303.97 24.52, 297.87 50, 303.17 101.51 M297.66 100.96 C237.47 96.46, 179.1 99.24, 1.43 99.14 M-1.53 97.15 C3.18 67.68, 0.12 32.75, 0.82 -1" stroke="#099268" stroke-width="2.5" fill="none" stroke-dasharray="8 10"></path></g><g transform="translate(647.4416656494141 827.9636128693819) rotate(0 112.55833435058594 12.5)"><text x="112.55833435058594" y="0" font-family="Virgil, Segoe UI Emoji" font-size="20px" fill="#099268" text-anchor="middle" style="white-space: pre;" direction="ltr" dominant-baseline="text-before-edge">&lt;&lt; participantTable &gt;&gt;</text></g><g stroke-opacity="0.7" fill-opacity="0.7" transform="translate(825 895.4636128693819) rotate(0 40.24166488647461 12.5)"><text x="80.48332977294922" y="0" font-family="Virgil, Segoe UI Emoji" font-size="20px" fill="#868e96" text-anchor="end" style="white-space: pre;" direction="ltr" dominant-baseline="text-before-edge">gateway</text></g><g stroke-linecap="round"><g transform="translate(910 650.4636128693819) rotate(0 50 0)"><path d="M-2.71 -1.54 C33.47 -1.05, 68.5 0.98, 101.22 0.24 M1.15 1.53 C30.1 0.31, 60.76 3.69, 100.15 1.31" stroke="#868e96" stroke-width="2" fill="none"></path></g><g transform="translate(910 650.4636128693819) rotate(0 50 0)"><path d="M100.33 2 L88.38 9.5 L85.75 -2.28 L97.89 -2.15" stroke="none" stroke-width="0" fill="#868e96" fill-rule="evenodd"></path><path d="M98.12 0.16 C94.4 1.41, 89.74 5.27, 87.64 8.18 M101.02 2.46 C96.17 2.01, 92.63 6.55, 86.85 8.99 M86.24 6.68 C84.73 3.43, 86.48 0.51, 88.64 -3.42 M85.58 7.92 C86.17 5.21, 86.52 2.07, 86.82 -5.89 M86.61 -3.16 C91.97 -3.56, 93.14 -3.06, 99.46 3.56 M85.38 -5.27 C91.72 -2.07, 97.49 0.77, 101.32 0.8 M100.15 1.31 C100.15 1.31, 100.15 1.31, 100.15 1.31 M100.15 1.31 C100.15 1.31, 100.15 1.31, 100.15 1.31" stroke="#868e96" stroke-width="2" fill="none"></path></g></g><mask></mask><g stroke-linecap="round"><g transform="translate(1170 690.4636128693819) rotate(0 0 50)"><path d="M0.31 2.62 C-2.02 24.2, -2.26 44.93, -2.09 97.1" stroke="#868e96" stroke-width="2.5" fill="none" stroke-dasharray="8 10"></path></g><g transform="translate(1170 690.4636128693819) rotate(0 0 50)"><path d="M-12.04 71.53 C-12.57 76.5, -10.46 80.82, -4.18 94.2" stroke="#868e96" stroke-width="2.5" fill="none"></path></g><g transform="translate(1170 690.4636128693819) rotate(0 0 50)"><path d="M8.48 71.53 C3.26 76.9, 0.68 81.22, -4.18 94.2" stroke="#868e96" stroke-width="2.5" fill="none"></path></g></g><mask></mask><g stroke-linecap="round"><g transform="translate(770 690.4636128693819) rotate(0 0 50)"><path d="M-3.55 -3.45 C3.72 22.98, 0.9 52.94, -2.84 102.8" stroke="#868e96" stroke-width="2.5" fill="none" stroke-dasharray="8 10"></path></g><g transform="translate(770 690.4636128693819) rotate(0 0 50)"><path d="M-14.6 70.49 C-5.71 78.45, -6.41 90.07, -5.68 105.59" stroke="#868e96" stroke-width="2.5" fill="none"></path></g><g transform="translate(770 690.4636128693819) rotate(0 0 50)"><path d="M5.87 71.97 C9.47 79.84, 3.49 91.08, -5.68 105.59" stroke="#868e96" stroke-width="2.5" fill="none"></path></g></g><mask></mask><g stroke-linecap="round"><g stroke-opacity="0.7" fill-opacity="0.7" transform="translate(750 1050.463612869382) rotate(0 0 -80)"><path d="M2.3 -2.87 C-3 -41.57, 0.97 -78.64, 1.26 -156.05 M0.58 1.61 C1.94 -51.57, 0.16 -103.5, 1.5 -158.84" stroke="#099268" stroke-width="2" fill="none"></path></g><g stroke-opacity="0.7" fill-opacity="0.7" transform="translate(750 1050.463612869382) rotate(0 0 -80)"><path d="M-2.29 -162.59 L10.42 -146.64 L-3.09 -147.06 L4.53 -158.54" stroke="none" stroke-width="0" fill="#099268" fill-rule="evenodd"></path><path d="M3.22 -160.99 C0.83 -158.05, 5.29 -153.99, 8.63 -142.22 M1.93 -157.63 C3.78 -155.1, 4.42 -151.63, 8.81 -144.32 M9.61 -145.48 C2.76 -147.33, 2.41 -146.59, -3.76 -143.32 M7.53 -145.86 C4.91 -145.49, 2.35 -144.06, -4.75 -146.55 M-3.29 -147.75 C-1.19 -148.24, -2.36 -148.82, 3.41 -157.04 M-4.67 -144.97 C-1.55 -149.35, 0.57 -154.72, 1.2 -159.45 M1.5 -158.84 C1.5 -158.84, 1.5 -158.84, 1.5 -158.84 M1.5 -158.84 C1.5 -158.84, 1.5 -158.84, 1.5 -158.84" stroke="#099268" stroke-width="2" fill="none"></path></g></g><mask></mask><g stroke-linecap="round"><g stroke-opacity="0.7" fill-opacity="0.7" transform="translate(1170 10.463612869381905) rotate(0 0 80)"><path d="M3.03 -0.46 C-3.01 34.11, 1.17 73.08, 1.95 163.16" stroke="#099268" stroke-width="2.5" fill="none" stroke-dasharray="8 10"></path></g><g stroke-opacity="0.7" fill-opacity="0.7" transform="translate(1170 10.463612869381905) rotate(0 0 80)"><path d="M-1.66 160.97 L-3.08 152.8 L9.03 150.7 L5.08 160.88" stroke="none" stroke-width="0" fill="#099268" fill-rule="evenodd"></path><path d="M4.22 162.81 C-1.91 157.34, -0.33 155.06, -3.18 152.05 M-4.95 148.33 C-0.32 149.17, 4.43 152.04, 8.52 146.98 M9.73 147.02 C8.51 152.98, 4.3 158.98, 3.86 164.96 M1.95 163.16 C1.95 163.16, 1.95 163.16, 1.95 163.16" stroke="#099268" stroke-width="2.5" fill="none"></path></g></g><mask></mask><g stroke-linecap="round"><g stroke-opacity="0.7" fill-opacity="0.7" transform="translate(1490 650.4636128693819) rotate(0 -80 0)"><path d="M-3.28 -3.59 C-57.29 -2.91, -114.44 -2.69, -161.41 -2.98" stroke="#099268" stroke-width="2.5" fill="none" stroke-dasharray="8 10"></path></g><g stroke-opacity="0.7" fill-opacity="0.7" transform="translate(1490 650.4636128693819) rotate(0 -80 0)"><path d="M-161.09 -4.16 L-147.22 -8.19 L-151.15 2.09 L-162.27 -3.73" stroke="none" stroke-width="0" fill="#099268" fill-rule="evenodd"></path><path d="M-163.87 -5.67 C-157.06 -6.36, -152.67 -8.42, -148.85 -11.52 M-146.97 -9.31 C-150.31 -3.11, -145.99 -1.24, -150.28 4.57 M-148.48 2.18 C-148.48 0.11, -154.32 -0.43, -162.8 -1.76 M-161.41 -2.98 C-161.41 -2.98, -161.41 -2.98, -161.41 -2.98" stroke="#099268" stroke-width="2.5" fill="none"></path></g></g><mask></mask></svg>