<svg version="1.1" xmlns="http://www.w3.org/2000/svg" viewBox="0 0 940.7763807315127 284" width="940.7763807315127" height="284">
  <!-- svg-source:excalidraw -->
  
  <defs>
    <style class="style-fonts">
      @font-face {
        font-family: "Virgil";
        src: url("https://excalidraw.com/Virgil.woff2");
      }
      @font-face {
        font-family: "Cascadia";
        src: url("https://excalidraw.com/Cascadia.woff2");
      }
      @font-face {
        font-family: "Assistant";
        src: url("https://excalidraw.com/Assistant-Regular.woff2");
      }
    </style>
    
  </defs>
  <rect x="0" y="0" width="940.7763807315127" height="284" fill="#ffffff"></rect><g stroke-linecap="round" transform="translate(10 10) rotate(0 250 30)"><path d="M0 0 C0 0, 0 0, 0 0 M0 0 C0 0, 0 0, 0 0 M-0.26 6.4 C1.68 4.79, 3.87 2.95, 4.99 0.36 M-0.26 6.4 C1.81 4.26, 3.39 1.77, 4.99 0.36 M0.13 12.04 C3.39 7.54, 8.48 2.91, 10.63 -0.03 M0.13 12.04 C4.11 7.96, 7.25 3.65, 10.63 -0.03 M-0.13 18.44 C2.23 11.6, 7.73 7.4, 15.62 0.33 M-0.13 18.44 C4.61 14.98, 6.6 9.35, 15.62 0.33 M0.27 24.08 C5.57 15.24, 14.57 8.16, 21.26 -0.07 M0.27 24.08 C5.33 17.87, 12.45 10.62, 21.26 -0.07 M0 30.48 C8.08 16.69, 18.94 8.27, 26.25 0.29 M0 30.48 C9.94 18.92, 21.28 6, 26.25 0.29 M-0.26 36.88 C7.73 26.72, 16.83 16.96, 31.89 -0.1 M-0.26 36.88 C11.59 22.81, 23.96 8.28, 31.89 -0.1 M0.14 42.52 C8.17 32.6, 16.02 24.18, 36.88 0.26 M0.14 42.52 C13.14 26.09, 27.84 10.37, 36.88 0.26 M-0.12 48.92 C15.62 34.29, 27.53 19.75, 42.52 -0.14 M-0.12 48.92 C13.94 32.14, 30.59 14.56, 42.52 -0.14 M0.27 54.56 C13.22 39.11, 26.18 24.97, 47.51 0.22 M0.27 54.56 C13.01 40.45, 23.79 27.62, 47.51 0.22 M0.67 60.2 C19.1 37.1, 35.62 18.09, 53.15 -0.17 M0.67 60.2 C16.13 42.14, 32.6 22.7, 53.15 -0.17 M5.65 60.56 C23.66 42.95, 36.05 25.7, 58.14 0.19 M5.65 60.56 C25.55 37.27, 46.53 12.73, 58.14 0.19 M11.3 60.17 C22.99 48.08, 32.89 32.63, 63.78 -0.21 M11.3 60.17 C31.47 36.97, 52.33 12.33, 63.78 -0.21 M16.28 60.53 C37.39 36.91, 56 15.05, 68.77 0.15 M16.28 60.53 C31.85 43.76, 47.82 25.42, 68.77 0.15 M21.93 60.14 C42.2 38.65, 58.78 15.33, 74.41 -0.24 M21.93 60.14 C37.99 40.16, 56.08 20.02, 74.41 -0.24 M26.91 60.5 C40.81 46.12, 49.4 32.52, 79.4 0.12 M26.91 60.5 C45.61 39.79, 63.67 19.31, 79.4 0.12 M32.56 60.1 C43.68 44.86, 56.14 31.9, 85.04 -0.28 M32.56 60.1 C49.7 39.14, 67.81 18.98, 85.04 -0.28 M37.54 60.46 C49.63 45.78, 64.47 26.12, 90.03 0.08 M37.54 60.46 C54.66 42.52, 71.14 21.96, 90.03 0.08 M43.19 60.07 C64.46 37.04, 83.91 15.03, 95.67 -0.31 M43.19 60.07 C61.34 39, 79.49 17.09, 95.67 -0.31 M48.17 60.43 C65.94 40.36, 83.36 18.5, 100.66 0.05 M48.17 60.43 C60.25 46.41, 71.39 33.02, 100.66 0.05 M53.16 60.79 C65.53 48.5, 77.19 33.76, 106.3 -0.34 M53.16 60.79 C66.04 45.81, 77.32 31.92, 106.3 -0.34 M58.8 60.39 C73.7 40.88, 89.13 24.02, 111.29 0.02 M58.8 60.39 C72.6 45.45, 84.84 28.45, 111.29 0.02 M63.79 60.75 C80.94 43.35, 97.52 25.29, 116.27 0.38 M63.79 60.75 C82.23 40.51, 101.44 17.28, 116.27 0.38 M69.43 60.36 C86.58 41.38, 106.48 21.01, 121.92 -0.02 M69.43 60.36 C83.9 42.1, 99.08 25.71, 121.92 -0.02 M74.42 60.72 C95.15 37.99, 114.77 11.59, 126.91 0.34 M74.42 60.72 C86.15 47.84, 98.46 32.94, 126.91 0.34 M80.06 60.32 C93.87 44.7, 105.86 33.88, 132.55 -0.05 M80.06 60.32 C96.5 39.26, 114.11 19.5, 132.55 -0.05 M85.05 60.68 C97.74 47.73, 106.36 35.28, 137.54 0.31 M85.05 60.68 C99.04 45.77, 111.6 31.16, 137.54 0.31 M90.69 60.29 C108.71 39.35, 127.97 17.66, 143.18 -0.09 M90.69 60.29 C105.98 42.37, 122.89 23.97, 143.18 -0.09 M95.68 60.65 C107.53 44.24, 124.1 32.04, 148.17 0.27 M95.68 60.65 C114.95 38.71, 135.79 15.48, 148.17 0.27 M101.32 60.25 C115.24 43.02, 129.62 29.92, 153.81 -0.12 M101.32 60.25 C113.72 44.26, 128.42 29.5, 153.81 -0.12 M106.31 60.61 C118.01 46.25, 127.5 34.03, 158.8 0.24 M106.31 60.61 C119.1 47.62, 130.36 32.99, 158.8 0.24 M111.95 60.22 C125.15 41.92, 140.12 25.67, 164.44 -0.16 M111.95 60.22 C130.83 40.18, 149.66 19.71, 164.44 -0.16 M116.94 60.58 C138.46 38.18, 158.37 15.99, 169.43 0.2 M116.94 60.58 C127.58 48.65, 139.21 36.59, 169.43 0.2 M122.58 60.18 C136.57 42.26, 153.28 21.11, 175.07 -0.19 M122.58 60.18 C135.89 45.03, 149.77 28.94, 175.07 -0.19 M127.57 60.55 C146.51 38.57, 166.39 16.18, 180.06 0.17 M127.57 60.55 C147.19 36.54, 168.26 14.72, 180.06 0.17 M133.21 60.15 C145.51 45.16, 159.79 28.56, 185.7 -0.23 M133.21 60.15 C154.74 35.91, 174.91 12.32, 185.7 -0.23 M138.2 60.51 C152.73 44.58, 166.18 28.43, 190.69 0.13 M138.2 60.51 C157.87 38.71, 177.23 15.56, 190.69 0.13 M143.84 60.12 C164.46 37.32, 182.82 14.85, 196.33 -0.26 M143.84 60.12 C158.08 43.81, 171.83 28.07, 196.33 -0.26 M148.83 60.48 C161.99 46.13, 172.19 32.38, 201.32 0.1 M148.83 60.48 C165.03 41.81, 180.59 23.24, 201.32 0.1 M154.47 60.08 C175.9 36.63, 195.07 15.39, 206.96 -0.3 M154.47 60.08 C171.57 40.69, 186.47 23.94, 206.96 -0.3 M159.46 60.44 C174.19 41.23, 190.42 25, 211.95 0.06 M159.46 60.44 C171.41 45.01, 183.85 31.26, 211.95 0.06 M165.1 60.05 C176.38 45.67, 187.3 35.23, 217.59 -0.33 M165.1 60.05 C178.21 43.37, 194.37 27.65, 217.59 -0.33 M170.09 60.41 C179.78 47.58, 189.92 36.13, 222.58 0.03 M170.09 60.41 C186.67 41.94, 203.69 22.44, 222.58 0.03 M175.08 60.77 C194.1 38.08, 214.22 15.22, 228.22 -0.36 M175.08 60.77 C190.02 44.45, 202.95 29.25, 228.22 -0.36 M180.72 60.37 C199.43 40.75, 216.48 18.38, 233.21 0 M180.72 60.37 C192.74 45.74, 203.79 32.17, 233.21 0 M185.71 60.73 C196.86 46.8, 207.63 34.11, 238.19 0.36 M185.71 60.73 C197.91 45.66, 209.62 31.61, 238.19 0.36 M191.35 60.34 C204.83 44.21, 219.94 25.74, 243.84 -0.04 M191.35 60.34 C211.61 37.96, 231.61 14.83, 243.84 -0.04 M196.34 60.7 C213.21 38.53, 231.59 19.42, 248.82 0.32 M196.34 60.7 C212.05 40.16, 230.28 20.73, 248.82 0.32 M201.98 60.3 C216.8 45.15, 228.26 28.7, 254.47 -0.07 M201.98 60.3 C215.73 42.78, 230.82 26.68, 254.47 -0.07 M206.97 60.66 C223.18 41.63, 239.18 22.94, 259.45 0.29 M206.97 60.66 C226.11 39.84, 244.89 19.05, 259.45 0.29 M212.61 60.27 C225 43.77, 240.29 32.04, 265.1 -0.11 M212.61 60.27 C223.63 48.6, 234.91 34.76, 265.1 -0.11 M217.6 60.63 C228.79 46.86, 244.23 31.54, 270.08 0.25 M217.6 60.63 C232.91 43.6, 246.96 28.68, 270.08 0.25 M223.24 60.23 C237.09 43.96, 254.35 25.35, 275.73 -0.14 M223.24 60.23 C238.65 44.43, 251.9 27.65, 275.73 -0.14 M228.23 60.59 C241.58 40.84, 257.08 25.01, 280.71 0.22 M228.23 60.59 C246.32 38.9, 265.78 17.03, 280.71 0.22 M233.87 60.2 C246.5 45.54, 263.1 27.3, 286.36 -0.18 M233.87 60.2 C253.72 36.75, 274.63 14.36, 286.36 -0.18 M238.86 60.56 C256.84 39.07, 276.36 17.28, 291.34 0.18 M238.86 60.56 C258.87 38.8, 278.06 16.19, 291.34 0.18 M244.5 60.17 C255.45 46.14, 269.45 31.42, 296.99 -0.21 M244.5 60.17 C260.64 39.57, 278.58 20.38, 296.99 -0.21 M249.49 60.53 C263.74 43.83, 281.59 26.17, 301.97 0.15 M249.49 60.53 C262.87 45.69, 274.49 30.38, 301.97 0.15 M255.13 60.13 C266.41 49.29, 275.63 34.32, 307.62 -0.25 M255.13 60.13 C266.66 45.21, 279.36 32.19, 307.62 -0.25 M260.12 60.49 C271.84 49.33, 282.2 34.49, 312.6 0.11 M260.12 60.49 C269.65 47.36, 281.53 36, 312.6 0.11 M265.76 60.1 C287.87 36.16, 307.34 11.27, 318.25 -0.28 M265.76 60.1 C281.97 41.55, 297.8 24.75, 318.25 -0.28 M270.75 60.46 C287.05 40.46, 305.48 20.8, 323.23 0.08 M270.75 60.46 C291.03 37.16, 309.88 15.9, 323.23 0.08 M276.39 60.06 C297.45 36.14, 315 15.14, 328.88 -0.31 M276.39 60.06 C293.45 41.92, 310.13 21.45, 328.88 -0.31 M281.38 60.42 C295.3 43.19, 310.26 26.06, 333.86 0.05 M281.38 60.42 C292.57 47.1, 304.2 32.75, 333.86 0.05 M286.37 60.78 C304.16 37.64, 323.13 18.44, 339.51 -0.35 M286.37 60.78 C304.57 39.64, 322.14 20.21, 339.51 -0.35 M292.01 60.39 C310.28 40.1, 325.62 20.8, 344.49 0.01 M292.01 60.39 C309.31 39.26, 327.34 19.7, 344.49 0.01 M297 60.75 C309.82 45.88, 320.63 32.76, 349.48 0.37 M297 60.75 C315.19 40.27, 334.84 19.13, 349.48 0.37 M302.64 60.35 C321.43 35.79, 340.96 14.74, 355.12 -0.02 M302.64 60.35 C313.85 47.56, 326.99 33.05, 355.12 -0.02 M307.63 60.71 C328.94 38.35, 346.52 13.38, 360.11 0.34 M307.63 60.71 C322.15 44.54, 337.3 26.79, 360.11 0.34 M313.27 60.32 C326.82 46.71, 338.77 30.66, 365.75 -0.06 M313.27 60.32 C328.92 43.12, 343.17 26.81, 365.75 -0.06 M318.26 60.68 C333.26 41, 353.14 22.5, 370.74 0.3 M318.26 60.68 C334.72 41.88, 352.87 20.32, 370.74 0.3 M323.9 60.28 C341.84 40.9, 357.43 19.85, 376.38 -0.09 M323.9 60.28 C337.42 45.68, 350.33 28.79, 376.38 -0.09 M328.89 60.64 C346.6 43.21, 362.16 22.32, 381.37 0.27 M328.89 60.64 C342.27 45.02, 357.95 28.89, 381.37 0.27 M334.53 60.25 C351.12 41.58, 364 26.14, 387.01 -0.13 M334.53 60.25 C355.84 36.37, 375.72 12.79, 387.01 -0.13 M339.52 60.61 C352.48 45.24, 364.95 31.23, 392 0.23 M339.52 60.61 C358.13 38, 378.11 17.72, 392 0.23 M345.16 60.22 C362.13 41.52, 376.47 23.87, 397.64 -0.16 M345.16 60.22 C361.19 41.96, 375.36 25.47, 397.64 -0.16 M350.15 60.58 C360 46.07, 371.97 35.36, 402.63 0.2 M350.15 60.58 C369.07 38.6, 389.14 16.78, 402.63 0.2 M355.79 60.18 C367.32 46.64, 378.29 33.74, 408.27 -0.2 M355.79 60.18 C368.57 46.44, 379.09 33.23, 408.27 -0.2 M360.78 60.54 C370.92 49.7, 381.38 35.01, 413.26 0.16 M360.78 60.54 C371.23 47.91, 382.42 36.19, 413.26 0.16 M366.42 60.15 C384.41 39.34, 402.21 17.95, 418.9 -0.23 M366.42 60.15 C377.81 46.37, 388.71 34.08, 418.9 -0.23 M371.41 60.51 C386.47 45.86, 397.83 29.36, 423.89 0.13 M371.41 60.51 C387.11 41.27, 402.9 23.01, 423.89 0.13 M377.05 60.11 C395.14 37.21, 416.49 15.2, 429.53 -0.26 M377.05 60.11 C397.32 36.74, 416.84 13.28, 429.53 -0.26 M382.04 60.47 C404.21 37.11, 425.27 11.52, 434.52 0.1 M382.04 60.47 C402.98 36.9, 423.54 12.31, 434.52 0.1 M387.68 60.08 C404.09 41.51, 416.27 24.86, 440.16 -0.3 M387.68 60.08 C408.97 37.25, 428.3 13.82, 440.16 -0.3 M392.67 60.44 C411.83 36.03, 434.35 13.84, 445.15 0.06 M392.67 60.44 C410.46 40.31, 426.92 21.27, 445.15 0.06 M398.31 60.04 C415.01 39.31, 433.38 17.18, 450.79 -0.33 M398.31 60.04 C418.57 35.75, 439.07 11.58, 450.79 -0.33 M403.3 60.4 C425.5 35.86, 444.19 14.32, 455.78 0.03 M403.3 60.4 C420.61 43.37, 435.76 24.19, 455.78 0.03 M408.28 60.76 C426.55 42.14, 444.76 19.87, 461.42 -0.37 M408.28 60.76 C423.85 42.3, 438.49 25.36, 461.42 -0.37 M413.93 60.37 C429.99 37.76, 451.02 20.07, 466.41 -0.01 M413.93 60.37 C425.68 48.55, 435.21 34.95, 466.41 -0.01 M418.91 60.73 C433.93 44.03, 448.57 29.25, 471.4 0.35 M418.91 60.73 C434.4 44.89, 447.71 27.54, 471.4 0.35 M424.56 60.33 C446.45 36.69, 464.96 13.08, 477.04 -0.04 M424.56 60.33 C437.76 45.74, 449 31.62, 477.04 -0.04 M429.54 60.69 C446.6 42.6, 460.05 24.72, 482.03 0.32 M429.54 60.69 C444.91 43.03, 459.39 27.7, 482.03 0.32 M435.19 60.3 C447.68 46.54, 461.83 31.53, 487.67 -0.08 M435.19 60.3 C452.91 40.27, 472.06 18.66, 487.67 -0.08 M440.17 60.66 C459.91 40.69, 479.94 17.16, 492.66 0.28 M440.17 60.66 C459.37 38.73, 476.93 17.6, 492.66 0.28 M445.82 60.26 C463.97 35.83, 483.92 13.07, 498.3 -0.11 M445.82 60.26 C466.84 37.05, 486.72 13.04, 498.3 -0.11 M450.8 60.63 C459.09 50.23, 471.11 36.07, 500.66 3.27 M450.8 60.63 C462.08 46.21, 474.88 32.69, 500.66 3.27 M456.45 60.23 C468.21 47.98, 480.3 30.46, 500.4 9.66 M456.45 60.23 C471.8 44.63, 485.2 27.51, 500.4 9.66 M461.43 60.59 C472.33 44.33, 486.17 31.53, 500.8 15.31 M461.43 60.59 C469.59 50.35, 478.67 40.43, 500.8 15.31 M467.08 60.2 C481.37 43.47, 493.81 31.8, 500.54 21.71 M467.08 60.2 C476.07 50.88, 484.4 39.55, 500.54 21.71 M472.06 60.56 C480.03 53.89, 484.84 47.26, 500.28 28.1 M472.06 60.56 C481.16 49.48, 490.15 40.19, 500.28 28.1 M477.71 60.16 C484.26 51.73, 493.29 41.62, 500.67 33.75 M477.71 60.16 C486.82 49.46, 495.73 39.19, 500.67 33.75 M482.69 60.52 C489.29 54.31, 498.39 45.1, 500.41 40.14 M482.69 60.52 C486.01 55.64, 491.89 49.34, 500.41 40.14 M488.34 60.13 C491.64 55.2, 495.45 52.18, 500.8 45.79 M488.34 60.13 C490.93 56.19, 494.28 53.33, 500.8 45.79 M493.32 60.49 C494.46 57.33, 496.93 55.3, 500.54 52.19 M493.32 60.49 C495.1 58.51, 497.09 57.09, 500.54 52.19 M498.97 60.09 C499.51 59.52, 500.07 58.88, 500.28 58.58 M498.97 60.09 C499.41 59.76, 499.67 59.33, 500.28 58.58" stroke="#a5d8ff" stroke-width="0.5" fill="none"></path><path d="M0 0 C104.15 0.17, 208.45 -0.12, 500 0 M0 0 C153.85 1.15, 307.91 0.97, 500 0 M500 0 C502.36 15.51, 499.13 30.08, 500 60 M500 0 C499.86 20.57, 501.32 40.98, 500 60 M500 60 C335.25 60.71, 169.02 59.94, 0 60 M500 60 C361.25 58.05, 221.59 58.42, 0 60 M0 60 C-1.67 38.79, -0.72 18.6, 0 0 M0 60 C-1.32 40.19, 0.39 20.63, 0 0" stroke="#1e1e1e" stroke-width="1" fill="none"></path></g><g transform="translate(30 30) rotate(0 76.15833282470703 12)"><text x="0" y="0" font-family="Cascadia, Segoe UI Emoji" font-size="20px" fill="#1e1e1e" text-anchor="start" style="white-space: pre;" direction="ltr" dominant-baseline="text-before-edge">participation</text></g><g stroke-linecap="round" transform="translate(10 70) rotate(0 250 90)"><path d="M0 0 C140.7 0.03, 281.11 0.89, 500 0 M0 0 C120.04 0.01, 240.29 0.48, 500 0 M500 0 C500.51 60.34, 502.63 123.55, 500 180 M500 0 C499.62 70.02, 499.13 140.09, 500 180 M500 180 C348.38 181.51, 197.17 181.85, 0 180 M500 180 C389.21 178.15, 279.19 178.35, 0 180 M0 180 C0.81 133.81, 1.76 88.68, 0 0 M0 180 C2.33 117.84, 1.44 56.66, 0 0" stroke="#1e1e1e" stroke-width="1" fill="none"></path></g><g transform="translate(30 130) rotate(0 58.58333206176758 12)"><text x="0" y="0" font-family="Cascadia, Segoe UI Emoji" font-size="20px" fill="#099268" text-anchor="start" style="white-space: pre;" direction="ltr" dominant-baseline="text-before-edge">first_name</text></g><g transform="translate(30 90) rotate(0 11.716666221618652 12)"><text x="0" y="0" font-family="Cascadia, Segoe UI Emoji" font-size="20px" fill="#1971c2" text-anchor="start" style="white-space: pre;" direction="ltr" dominant-baseline="text-before-edge">id</text></g><g transform="translate(30 210) rotate(0 76.15833282470703 12)"><text x="0" y="0" font-family="Cascadia, Segoe UI Emoji" font-size="20px" fill="#1e1e1e" text-anchor="start" style="white-space: pre;" direction="ltr" dominant-baseline="text-before-edge">participation</text></g><g transform="translate(30 170) rotate(0 52.724998474121094 12)"><text x="0" y="0" font-family="Cascadia, Segoe UI Emoji" font-size="20px" fill="#099268" text-anchor="start" style="white-space: pre;" direction="ltr" dominant-baseline="text-before-edge">last_name</text></g><g transform="translate(379.7000045776367 130) rotate(0 52.724998474121094 12)"><text x="105.44999694824219" y="0" font-family="Cascadia, Segoe UI Emoji" font-size="20px" fill="#1e1e1e" text-anchor="end" style="white-space: pre;" direction="ltr" dominant-baseline="text-before-edge">text (40)</text></g><g transform="translate(450 90) rotate(0 17.575000762939453 12)"><text x="35.150001525878906" y="0" font-family="Cascadia, Segoe UI Emoji" font-size="20px" fill="#1e1e1e" text-anchor="end" style="white-space: pre;" direction="ltr" dominant-baseline="text-before-edge">int</text></g><g transform="translate(379.7000045776367 170) rotate(0 52.724998474121094 12)"><text x="105.44999694824219" y="0" font-family="Cascadia, Segoe UI Emoji" font-size="20px" fill="#1e1e1e" text-anchor="end" style="white-space: pre;" direction="ltr" dominant-baseline="text-before-edge">text (40)</text></g><g transform="translate(426.5666694641113 210) rotate(0 29.29166603088379 12)"><text x="58.58333206176758" y="0" font-family="Cascadia, Segoe UI Emoji" font-size="20px" fill="#1e1e1e" text-anchor="end" style="white-space: pre;" direction="ltr" dominant-baseline="text-before-edge">float</text></g><g stroke-linecap="round" transform="translate(670 90) rotate(0 50 30)"><path d="M0 0 C0 0, 0 0, 0 0 M0 0 C0 0, 0 0, 0 0 M-0.26 6.4 C1.04 4.07, 3.48 2.22, 4.99 0.36 M-0.26 6.4 C1.78 4.21, 3.56 2.23, 4.99 0.36 M0.13 12.04 C1.73 8.16, 5.26 5.9, 10.63 -0.03 M0.13 12.04 C3.2 10.01, 4.02 6.14, 10.63 -0.03 M-0.13 18.44 C6.1 12.03, 10.98 5.41, 15.62 0.33 M-0.13 18.44 C6.24 11.43, 12.16 3.05, 15.62 0.33 M0.27 24.08 C5.78 17.58, 11.24 14.21, 21.26 -0.07 M0.27 24.08 C7.97 14.29, 17.07 5.39, 21.26 -0.07 M0 30.48 C5.32 24.43, 13.58 16.18, 26.25 0.29 M0 30.48 C9.87 18.11, 19.98 8.71, 26.25 0.29 M-0.26 36.88 C6.19 26.65, 15.97 18.85, 31.89 -0.1 M-0.26 36.88 C6.17 29.55, 12.96 20, 31.89 -0.1 M0.14 42.52 C10.16 31.71, 19.93 21.69, 36.88 0.26 M0.14 42.52 C11.08 30.31, 19.27 19.1, 36.88 0.26 M-0.12 48.92 C11.11 36.5, 20.05 26.64, 42.52 -0.14 M-0.12 48.92 C15.89 32.81, 30.7 14.1, 42.52 -0.14 M0.27 54.56 C15.93 37.16, 31.96 15.86, 47.51 0.22 M0.27 54.56 C13.22 39.36, 26.91 24.3, 47.51 0.22 M0.67 60.2 C17.69 41.88, 38.02 19.55, 53.15 -0.17 M0.67 60.2 C18.05 39.29, 36.37 19.18, 53.15 -0.17 M5.65 60.56 C26.86 39.47, 43.66 14.42, 58.14 0.19 M5.65 60.56 C25.43 38.08, 42.94 17.6, 58.14 0.19 M11.3 60.17 C25.62 44.57, 37.31 27.82, 63.78 -0.21 M11.3 60.17 C21.12 48.71, 31.48 35.96, 63.78 -0.21 M16.28 60.53 C31.23 47.18, 41.95 29.68, 68.77 0.15 M16.28 60.53 C29.08 46.65, 40.67 32.77, 68.77 0.15 M21.93 60.14 C36.01 46.26, 51.86 27.21, 74.41 -0.24 M21.93 60.14 C33.05 47.96, 43.35 36.53, 74.41 -0.24 M26.91 60.5 C43.26 39.56, 62.56 17.44, 79.4 0.12 M26.91 60.5 C45.76 37.6, 64.49 16.76, 79.4 0.12 M32.56 60.1 C46.8 46.19, 58.32 32.79, 85.04 -0.28 M32.56 60.1 C48.72 42.41, 64.23 24.59, 85.04 -0.28 M37.54 60.46 C57.13 38.98, 75.79 15.93, 90.03 0.08 M37.54 60.46 C48.67 46.93, 59.63 33.12, 90.03 0.08 M43.19 60.07 C53.53 48.77, 66.62 35.66, 95.67 -0.31 M43.19 60.07 C58.06 42.48, 71.38 26.01, 95.67 -0.31 M48.17 60.43 C65.62 43.35, 79.47 23.77, 100.66 0.05 M48.17 60.43 C58.65 48.62, 70.66 36.09, 100.66 0.05 M53.16 60.79 C66.5 49.83, 77.37 34.73, 100.4 6.45 M53.16 60.79 C64.1 49.49, 74.9 35.89, 100.4 6.45 M58.8 60.39 C74.1 42.24, 92.56 21.04, 100.13 12.85 M58.8 60.39 C71.98 46.05, 84.38 32.45, 100.13 12.85 M63.79 60.75 C75.96 46.86, 87.84 30.03, 100.53 18.49 M63.79 60.75 C73.89 48.9, 83.8 38.01, 100.53 18.49 M69.43 60.36 C80.79 47.89, 91.38 32.69, 100.27 24.89 M69.43 60.36 C76.69 52.04, 85.96 42.45, 100.27 24.89 M74.42 60.72 C83.78 48.76, 91.22 41.62, 100.66 30.53 M74.42 60.72 C81.03 54.43, 87.18 46.88, 100.66 30.53 M80.06 60.32 C85.82 55.62, 88.34 46.7, 100.4 36.93 M80.06 60.32 C87.1 50.49, 95.28 42.07, 100.4 36.93 M85.05 60.68 C92.49 53.11, 96.15 45.49, 100.14 43.32 M85.05 60.68 C89.58 54.28, 95.53 48.47, 100.14 43.32 M90.69 60.29 C94.92 57.45, 97.73 51.9, 100.53 48.97 M90.69 60.29 C94.21 55.57, 98.55 52.28, 100.53 48.97 M95.68 60.65 C97.53 58.58, 98.18 57.86, 100.27 55.37 M95.68 60.65 C97.67 58.9, 99.3 56.34, 100.27 55.37" stroke="#a5d8ff" stroke-width="0.5" fill="none"></path><path d="M0 0 C36.59 1.55, 74.56 2.06, 100 0 M0 0 C25.24 -0.08, 51.26 0.26, 100 0 M100 0 C99.79 11.04, 99.55 23.45, 100 60 M100 0 C100.3 16.92, 99.23 36.16, 100 60 M100 60 C65.14 60.95, 31.99 58.18, 0 60 M100 60 C64.14 61.06, 28.83 61.04, 0 60 M0 60 C1.63 37.78, -0.91 13.75, 0 0 M0 60 C0.2 42.88, -0.96 26.69, 0 0" stroke="#1e1e1e" stroke-width="1" fill="none"></path></g><g stroke-opacity="0.7" fill-opacity="0.7" transform="translate(790.1763746279971 114.03519816174799) rotate(0 70.30000305175781 12)"><text x="0" y="0" font-family="Cascadia, Segoe UI Emoji" font-size="20px" fill="#1e1e1e" text-anchor="start" style="white-space: pre;" direction="ltr" dominant-baseline="text-before-edge">entity table</text></g><g stroke-opacity="0.7" fill-opacity="0.7" transform="translate(790 190) rotate(0 70.30000305175781 12)"><text x="0" y="0" font-family="Cascadia, Segoe UI Emoji" font-size="20px" fill="#1e1e1e" text-anchor="start" style="white-space: pre;" direction="ltr" dominant-baseline="text-before-edge">technical id</text></g><g transform="translate(670 190) rotate(0 17.575000762939453 12)"><text x="0" y="0" font-family="Cascadia, Segoe UI Emoji" font-size="20px" fill="#1971c2" text-anchor="start" style="white-space: pre;" direction="ltr" dominant-baseline="text-before-edge">id:</text></g><g stroke-opacity="0.7" fill-opacity="0.7" transform="translate(790 250) rotate(0 64.44166564941406 12)"><text x="0" y="0" font-family="Cascadia, Segoe UI Emoji" font-size="20px" fill="#1e1e1e" text-anchor="start" style="white-space: pre;" direction="ltr" dominant-baseline="text-before-edge">business id</text></g><g transform="translate(670 250) rotate(0 35.150001525878906 12)"><text x="0" y="0" font-family="Cascadia, Segoe UI Emoji" font-size="20px" fill="#099268" text-anchor="start" style="white-space: pre;" direction="ltr" dominant-baseline="text-before-edge">other:</text></g><g transform="translate(670 10) rotate(0 63.29999923706055 21.599999999999994)"><text x="0" y="0" font-family="Cascadia, Segoe UI Emoji" font-size="36px" fill="#1e1e1e" text-anchor="start" style="white-space: pre;" direction="ltr" dominant-baseline="text-before-edge">Legend</text></g></svg>